<svg width="16" height="10" viewBox="0 0 16 10" fill="none" xmlns="http://www.w3.org/2000/svg">
<path d="M8.62432 0.554579L15.7444 7.67478C15.9092 7.83946 16 8.0593 16 8.2937C16 8.52811 15.9092 8.74794 15.7444 8.91262L15.2202 9.43698C14.8786 9.77818 14.3234 9.77818 13.9823 9.43698L8.00332 3.45797L2.01767 9.44361C1.85286 9.60829 1.63316 9.69922 1.39888 9.69922C1.16435 9.69922 0.944641 9.60829 0.779699 9.44361L0.255606 8.91926C0.0907946 8.75445 -1.89346e-06 8.53474 -1.89067e-06 8.30034C-1.88787e-06 8.06593 0.0907946 7.8461 0.255606 7.68141L7.38218 0.554579C7.54752 0.389507 7.76826 0.298841 8.00293 0.299361C8.2385 0.298841 8.45912 0.389507 8.62432 0.554579Z" fill="#002366"/>
</svg>
