<svg width="9" height="7" viewBox="0 0 9 7" fill="none" xmlns="http://www.w3.org/2000/svg">
<path d="M4.14882 6.00055L0.143779 1.99544C0.0510727 1.9028 -4.03218e-08 1.77915 -3.45584e-08 1.64729C-2.87949e-08 1.51544 0.0510727 1.39178 0.143779 1.29915L0.438655 1.0042C0.6308 0.812275 0.94309 0.812275 1.13494 1.0042L4.49813 4.36739L7.86506 1.00047C7.95777 0.907836 8.08135 0.85669 8.21313 0.85669C8.34506 0.85669 8.46864 0.907836 8.56142 1.00047L8.85622 1.29542C8.94893 1.38812 9 1.51171 9 1.64356C9 1.77541 8.94893 1.89907 8.85622 1.9917L4.84752 6.00055C4.75452 6.0934 4.63035 6.1444 4.49835 6.14411C4.36584 6.1444 4.24175 6.0934 4.14882 6.00055Z" fill="#3A4047"/>
</svg>
