<svg width="60" height="60" viewBox="0 0 60 60" fill="none" xmlns="http://www.w3.org/2000/svg">
<path d="M29.999 60C23.2198 60 16.8465 57.3601 12.0528 52.5665C7.25914 47.7728 4.61914 41.3994 4.61914 34.6201C4.61914 29.9456 5.8823 25.3883 8.27223 21.4404C8.54457 20.9905 9.08258 20.777 9.58977 20.9186C10.0963 21.0599 10.4466 21.5215 10.4466 22.0473C10.4466 24.6066 12.538 27.5815 15.2341 27.5815C17.8831 27.5815 20.0384 25.4262 20.0384 22.7771C20.0384 21.8689 19.7913 20.9908 19.3235 20.238C18.4629 18.8774 18.0054 17.2862 18.0054 15.6444C18.0054 11.0404 21.6036 7.26413 26.198 7.04428C28.0364 6.93342 29.4755 5.40342 29.4755 3.55842C29.4755 2.91518 29.3097 2.29795 28.996 1.77342C28.7628 1.38342 28.7759 0.893813 29.03 0.516939C29.2839 0.139946 29.7329 -0.055874 30.1818 0.0139698C32.2334 0.333071 34.1159 1.37756 35.4823 2.95514C36.8652 4.55147 37.6268 6.59288 37.6268 8.70331C37.6268 10.5015 37.0834 12.2364 36.0555 13.7205C36.0511 13.7268 36.0467 13.733 36.0423 13.7392C35.3904 14.6417 35.0459 15.7032 35.0459 16.8087C35.0459 19.6895 37.3896 22.0332 40.2704 22.0332C43.0951 22.0332 45.3897 19.8292 45.494 17.0159C45.5111 16.5556 45.7962 16.1481 46.2228 15.9741C46.6493 15.8004 47.1381 15.8924 47.4721 16.2096C49.9428 18.5561 51.8872 21.3224 53.2509 24.4316C54.6629 27.6508 55.3788 31.0787 55.3788 34.6203C55.3788 39.5489 53.9643 44.3284 51.2884 48.4422C50.9353 48.9845 50.2095 49.1383 49.667 48.7855C49.1245 48.4326 48.9709 47.7067 49.3236 47.1641C51.7517 43.4316 53.035 39.0941 53.035 34.6203C53.035 28.9695 51.0365 23.669 47.3649 19.4772C46.2917 22.356 43.5239 24.3769 40.2704 24.3769C36.0973 24.3769 32.7022 20.9817 32.7022 16.8087C32.7022 15.2115 33.1975 13.6794 34.1348 12.3773C34.8861 11.2892 35.2831 10.019 35.2831 8.70331C35.2831 6.26381 33.8741 4.06971 31.7915 2.97963C31.81 3.171 31.8193 3.36413 31.8193 3.55842C31.8193 6.64526 29.4076 9.20428 26.3286 9.3844C26.3241 9.38475 26.3197 9.38498 26.3152 9.38522C22.9696 9.54237 20.3491 12.2918 20.3491 15.6444C20.3491 16.842 20.6811 18 21.3092 18.9931C22.0128 20.1257 22.3821 21.4314 22.3821 22.7771C22.3821 26.7187 19.1755 29.9253 15.234 29.9253C13.328 29.9253 11.5135 29.0278 10.1246 27.3983C9.61051 26.7951 9.18406 26.1209 8.85746 25.4079C7.61188 28.29 6.96277 31.4243 6.96277 34.6203C6.96301 47.3223 17.2968 57.6563 29.999 57.6563C34.308 57.6563 38.5093 56.4596 42.1488 54.1956C42.6983 53.8537 43.4211 54.0222 43.7628 54.5717C44.1046 55.1212 43.9363 55.8439 43.3868 56.1857C39.3754 58.6811 34.7459 60 29.999 60Z" fill="#E2D7B9"/>
<path d="M26.7553 48.9748C26.5834 48.9748 26.4091 48.9369 26.2442 48.8568C25.6619 48.5741 25.4192 47.8729 25.702 47.2908L32.1501 34.0128C32.4328 33.4304 33.1343 33.1879 33.7161 33.4705C34.2983 33.7532 34.5411 34.4544 34.2583 35.0365L27.8102 48.3145C27.6077 48.7318 27.1899 48.9748 26.7553 48.9748Z" fill="#E2D7B9"/>
<path d="M24.2799 39.2153C22.2119 39.2153 20.5293 37.5328 20.5293 35.4646C20.5293 33.3963 22.2118 31.7139 24.2799 31.7139C26.348 31.7139 28.0306 33.3963 28.0306 35.4646C28.0306 37.5328 26.3481 39.2153 24.2799 39.2153ZM24.2799 34.0576C23.5042 34.0576 22.873 34.6888 22.873 35.4646C22.873 36.2404 23.5042 36.8715 24.2799 36.8715C25.0557 36.8715 25.6868 36.2404 25.6868 35.4646C25.6868 34.6888 25.0557 34.0576 24.2799 34.0576Z" fill="#E2D7B9"/>
<path d="M35.7155 50.6517C33.6474 50.6517 31.9648 48.9692 31.9648 46.9011C31.9648 44.833 33.6473 43.1504 35.7155 43.1504C37.7836 43.1504 39.4661 44.8329 39.4661 46.9011C39.4661 48.9692 37.7836 50.6517 35.7155 50.6517ZM35.7155 45.4943C34.9398 45.4943 34.3086 46.1254 34.3086 46.9012C34.3086 47.6769 34.9398 48.3081 35.7155 48.3081C36.4912 48.3081 37.1224 47.6769 37.1224 46.9012C37.1224 46.1253 36.4912 45.4943 35.7155 45.4943Z" fill="#E2D7B9"/>
<path d="M46.916 53.1079C46.6066 53.1079 46.3043 52.9826 46.0864 52.7646C45.8685 52.5466 45.7441 52.2442 45.7441 51.936C45.7441 51.6267 45.8685 51.3255 46.0864 51.1076C46.3043 50.8897 46.6066 50.7642 46.916 50.7642C47.2243 50.7642 47.5254 50.8896 47.7435 51.1076C47.9626 51.3255 48.0879 51.6278 48.0879 51.936C48.0879 52.2442 47.9626 52.5466 47.7435 52.7646C47.5255 52.9826 47.2243 53.1079 46.916 53.1079Z" fill="#E2D7B9"/>

</svg>
