<svg width="46" height="58" viewBox="0 0 46 58" fill="none" xmlns="http://www.w3.org/2000/svg">
<path d="M44.949 12.187L33.314 0.551C32.964 0.201 32.48 0 31.985 0H2.963C1.777 0 0.5 0.916 0.5 2.926V56C0.5 56.837 1.342 57.653 2.338 57.91C2.388 57.923 2.436 57.942 2.488 57.952C2.644 57.983 2.803 58 2.963 58H43.037C43.197 58 43.356 57.983 43.512 57.952C43.564 57.942 43.613 57.923 43.664 57.909C44.659 57.652 45.5 56.837 45.5 56V13.978C45.5 13.211 45.407 12.644 44.949 12.187ZM41.935 12H33.5V3.565L41.935 12ZM2.963 2H31.558C31.525 2.126 31.5 2.256 31.5 2.391V14H43.108C43.243 14 43.373 13.975 43.499 13.942C43.499 13.957 43.5 13.963 43.5 13.978V26.671L35.189 18.775C34.994 18.59 34.744 18.491 34.464 18.501C34.195 18.511 33.943 18.628 33.761 18.826L23.966 29.553L19.223 24.81C18.854 24.441 18.265 24.418 17.868 24.755L2.5 37.836V2.926C2.5 2.709 2.533 2 2.963 2ZM2.963 56C2.892 56 2.828 55.974 2.765 55.951C2.609 55.877 2.5 55.721 2.5 55.537V41H43.5V55.537C43.5 55.721 43.39 55.877 43.235 55.951C43.172 55.975 43.108 56 43.037 56H2.963ZM4.218 39L18.463 26.876L28.776 37.19C29.167 37.581 29.799 37.581 30.19 37.19C30.581 36.799 30.581 36.167 30.19 35.776L25.383 30.969L34.551 20.928L43.5 29.429V39H4.218Z" fill="#AEB3BA"/>
<path d="M13.354 51.43C13.335 51.876 13.183 52.194 12.896 52.38C12.609 52.566 12.224 52.66 11.741 52.66C11.55 52.66 11.345 52.638 11.126 52.592C10.907 52.546 10.697 52.494 10.497 52.435C10.296 52.375 10.112 52.312 9.943 52.244C9.774 52.176 9.644 52.109 9.553 52.046L8.856 53.153C9.038 53.29 9.261 53.413 9.526 53.522C9.79 53.631 10.066 53.729 10.353 53.816C10.64 53.903 10.918 53.966 11.187 54.007C11.456 54.048 11.69 54.069 11.891 54.069C12.292 54.069 12.682 54.03 13.06 53.953C13.438 53.876 13.773 53.739 14.065 53.543C14.357 53.347 14.589 53.087 14.762 52.764C14.935 52.441 15.022 52.041 15.022 51.568V43.72H13.354V51.43Z" fill="#AEB3BA"/>
<path d="M22.767 44.744C22.434 44.471 22.058 44.265 21.639 44.129C21.22 43.992 20.796 43.924 20.368 43.924H17.47V54H19.111V50.363H20.328C20.856 50.363 21.34 50.286 21.777 50.131C22.214 49.976 22.588 49.757 22.898 49.475C23.208 49.193 23.449 48.844 23.623 48.429C23.796 48.014 23.883 47.552 23.883 47.041C23.883 46.558 23.78 46.123 23.575 45.735C23.37 45.347 23.099 45.018 22.767 44.744ZM22.145 48.073C22.044 48.351 21.913 48.567 21.749 48.722C21.585 48.877 21.405 48.989 21.209 49.057C21.013 49.125 20.814 49.16 20.614 49.16H19.11V45.168H20.34C20.759 45.168 21.096 45.234 21.352 45.366C21.607 45.498 21.805 45.662 21.947 45.858C22.088 46.054 22.181 46.259 22.227 46.473C22.272 46.687 22.295 46.876 22.295 47.04C22.295 47.451 22.245 47.795 22.145 48.073Z" fill="#AEB3BA"/>
<path d="M29.76 49.926H31.469V52.414C31.396 52.515 31.282 52.592 31.127 52.646C30.972 52.701 30.81 52.744 30.642 52.776C30.473 52.808 30.305 52.831 30.136 52.844C29.967 52.858 29.833 52.865 29.733 52.865C29.405 52.865 29.092 52.788 28.796 52.633C28.5 52.478 28.235 52.241 28.003 51.922C27.771 51.603 27.588 51.193 27.456 50.692C27.324 50.191 27.253 49.598 27.244 48.915C27.253 48.213 27.326 47.621 27.463 47.138C27.6 46.655 27.789 46.261 28.03 45.955C28.271 45.649 28.545 45.434 28.85 45.306C29.155 45.178 29.476 45.115 29.814 45.115C30.115 45.115 30.406 45.175 30.689 45.293C30.971 45.411 31.222 45.603 31.441 45.867L32.576 44.855C32.202 44.491 31.778 44.217 31.305 44.035C30.831 43.852 30.321 43.762 29.774 43.762C29.181 43.762 28.63 43.873 28.12 44.097C27.609 44.321 27.165 44.646 26.787 45.075C26.409 45.504 26.112 46.039 25.898 46.681C25.684 47.324 25.577 48.069 25.577 48.916C25.577 49.763 25.684 50.511 25.898 51.158C26.112 51.805 26.408 52.343 26.787 52.771C27.165 53.2 27.607 53.523 28.113 53.742C28.619 53.961 29.173 54.07 29.774 54.07C30.075 54.07 30.378 54.048 30.683 54.002C30.988 53.956 31.285 53.879 31.572 53.77C31.859 53.661 32.133 53.522 32.392 53.353C32.651 53.184 32.886 52.968 33.096 52.704V48.808H29.76V49.926Z" fill="#AEB3BA"/>
<path d="M13.069 23.638C16.14 23.638 18.638 21.14 18.638 18.069C18.638 14.998 16.14 12.5 13.069 12.5C9.998 12.5 7.5 14.998 7.5 18.069C7.5 21.14 9.998 23.638 13.069 23.638ZM13.069 14.5C15.037 14.5 16.638 16.101 16.638 18.069C16.638 20.037 15.037 21.638 13.069 21.638C11.101 21.638 9.5 20.037 9.5 18.069C9.5 16.101 11.101 14.5 13.069 14.5Z" fill="#AEB3BA"/>
</svg>
