<svg width="25" height="25" viewBox="0 0 25 25" fill="none" xmlns="http://www.w3.org/2000/svg">
<g clip-path="url(#clip0)">
<path d="M14.1406 13.6353L14.1406 3.13525L24.6406 3.13525V13.7853C24.6406 20.9853 17.8906 21.8853 17.8906 21.8853L16.9906 19.7853C16.9906 19.7853 19.9906 19.3353 20.5906 16.9353C21.1906 15.1353 19.9906 13.6353 19.9906 13.6353H14.1406Z" fill="#E2D7B9"/>
<path d="M0.640625 13.6353L0.640625 3.13525L11.1406 3.13525L11.1406 13.7853C11.1406 20.9853 4.39063 21.8853 4.39063 21.8853L3.49062 19.7853C3.49062 19.7853 6.49063 19.3353 7.09063 16.9353C7.69063 15.1353 6.49063 13.6353 6.49063 13.6353H0.640625Z" fill="#E2D7B9"/>
</g>
<defs>
<clipPath id="clip0">
<rect width="24" height="24" fill="white" transform="translate(0.640625 0.135254)"/>
</clipPath>
</defs>
</svg>
