<svg width="60" height="60" viewBox="0 0 60 60" fill="none" xmlns="http://www.w3.org/2000/svg">

<path d="M46.564 46.1668C46.1477 45.9204 45.6105 46.0576 45.3639 46.4737C45.1173 46.8899 45.2548 47.4272 45.6708 47.6739C48.078 49.1005 48.5834 50.4352 48.5834 51.3036C48.5834 52.9861 46.706 54.7054 43.4327 56.0208C39.8585 57.4571 35.0876 58.2482 29.9986 58.2482C24.9097 58.2482 20.1387 57.4571 16.5645 56.0208C13.2911 54.7055 11.4137 52.9861 11.4137 51.3037C11.4137 49.6213 13.2911 47.902 16.5643 46.5866C18.0193 46.0018 19.6744 45.5254 21.4669 45.1644L28.2978 53.0748C28.725 53.5695 29.3449 53.8533 29.9985 53.8533C30.652 53.8533 31.2719 53.5696 31.6991 53.0748L38.5271 45.1679C39.7693 45.4168 40.9448 45.7205 42.0268 46.0758L42.1794 46.1265C42.6391 46.2793 43.1343 46.0308 43.2871 45.5718C43.4396 45.1127 43.1913 44.6169 42.7323 44.4642L42.5766 44.4124C41.7128 44.1288 40.7932 43.877 39.8317 43.6573L46.4934 35.9429C47.6378 34.6177 48.5947 33.2198 49.3376 31.7882C50.9304 28.7183 51.7723 25.2554 51.7723 21.7738C51.7723 9.76769 42.0047 0 29.9987 0C29.9985 0 29.9985 0 29.9984 0C26.428 0 22.8896 0.877852 19.7659 2.53863C19.3387 2.76574 19.1766 3.29602 19.4037 3.72316C19.6307 4.15031 20.1612 4.31273 20.5882 4.08539C23.4598 2.55879 26.7138 1.75184 29.9987 1.75184C41.0388 1.75184 50.0205 10.7337 50.0205 21.7739C50.0205 25.0216 49.2676 28.1196 47.7827 30.9816C47.1028 32.2921 46.2228 33.5762 45.1676 34.7981L30.3732 51.9299C30.2443 52.0792 30.0831 52.1014 29.9985 52.1014C29.9137 52.1014 29.7526 52.0792 29.6237 51.9299L14.8171 34.7837C13.8485 33.6621 13.0325 32.4954 12.392 31.3159C10.8029 28.3904 9.96773 25.072 9.97652 21.7196C9.99234 15.7054 12.6625 10.0758 17.3021 6.27422C17.6763 5.96766 17.7312 5.41582 17.4245 5.04164C17.118 4.66746 16.5662 4.61262 16.1919 4.9193C11.1458 9.05367 8.24191 15.1755 8.22468 21.7152C8.21508 25.3603 9.12386 28.9693 10.8526 32.1521C11.553 33.4417 12.4407 34.7123 13.4912 35.9288L20.1629 43.6547C18.6281 44.0074 17.1977 44.4442 15.911 44.9612C11.8812 46.5806 9.66187 48.8331 9.66187 51.3037C9.66187 53.7744 11.8813 56.0269 15.911 57.6463C19.6882 59.1641 24.6912 60 29.9985 60C35.3059 60 40.3089 59.1641 44.0858 57.6463C48.1155 56.0269 50.335 53.7744 50.335 51.3037C50.3351 49.4053 49.031 47.6291 46.564 46.1668Z" fill="#E2D7B9"/>
<path d="M29.9981 36.7769C38.4512 36.7769 45.3282 29.8999 45.3282 21.4468C45.3282 12.9937 38.4512 6.1167 29.9981 6.1167C21.545 6.1167 14.668 12.9937 14.668 21.4468C14.668 29.8999 21.5451 36.7769 29.9981 36.7769ZM29.9981 35.0251C27.6864 35.0251 25.5082 34.4438 23.6008 33.4207C24.1916 32.6175 24.9325 31.9255 25.7775 31.3931C26.3578 31.0286 26.8418 30.5171 27.1791 29.9103C27.5107 29.3076 27.6857 28.6262 27.6857 27.9397C27.6857 26.6591 27.0822 25.444 26.0709 24.6892C24.3882 23.4347 23.4232 21.5126 23.4232 19.4155C23.4232 17.5725 24.1652 15.8648 25.5125 14.6072C26.8586 13.3506 28.6182 12.7282 30.4664 12.8559C33.6622 13.0781 36.2769 15.6494 36.548 18.8366C36.7416 21.1194 35.7692 23.3003 33.9468 24.6703C33.4448 25.0479 33.029 25.545 32.7418 26.1131C32.4595 26.6808 32.3103 27.3123 32.3103 27.9396C32.3103 29.3517 33.0233 30.6426 34.2167 31.3925C35.0629 31.9251 35.8043 32.6172 36.3952 33.4207C34.488 34.4438 32.3097 35.0251 29.9981 35.0251ZM29.9981 7.86842C37.4852 7.86842 43.5765 13.9596 43.5765 21.4467C43.5765 25.9949 41.3285 30.0275 37.8856 32.4929C37.1523 31.4663 36.2199 30.5835 35.1495 29.9096C34.4687 29.4819 34.0621 28.7454 34.0621 27.9396C34.0621 27.5764 34.1456 27.2244 34.3078 26.8983C34.4742 26.569 34.7069 26.2905 34.9996 26.0704C37.3071 24.3358 38.5385 21.5762 38.2936 18.6883C37.9497 14.6485 34.637 11.3899 30.5873 11.1083C28.2497 10.9474 26.0221 11.735 24.3171 13.3265C22.6357 14.8962 21.6713 17.1154 21.6713 19.4155C21.6713 22.0321 22.9246 24.5286 25.0235 26.0933C25.5936 26.5189 25.934 27.209 25.934 27.9397C25.934 28.3318 25.8338 28.7213 25.6462 29.0626C25.4537 29.4088 25.1769 29.7017 24.8446 29.9104C23.7754 30.5843 22.8441 31.4674 22.1111 32.4935C18.6679 30.0281 16.4198 25.9952 16.4198 21.4469C16.4198 13.9597 22.511 7.86842 29.9981 7.86842Z" fill="#E2D7B9"/>

</svg>
