<svg width="327" height="215" viewBox="0 0 327 215" fill="none" xmlns="http://www.w3.org/2000/svg">
<g opacity="0.15">
<path d="M73.6501 0.916504C77.446 1.25484 81.2984 1.5368 85.0942 1.93153C97.5581 3.17211 109.172 6.95025 119.766 13.5479C130.077 19.9764 138.519 28.3785 144.977 38.6979C150.19 46.9873 153.419 56.0097 155.572 65.5396C157.895 75.8027 158.065 86.1784 157.271 96.4415C156.025 112.795 151.153 128.02 140.785 141.272C129.228 156.046 114.271 165.237 96.1418 169.241C88.6068 170.876 80.7885 171.779 73.0836 171.892C49.9688 172.23 26.854 172.004 3.68251 172.004C2.49277 172.004 1.24639 171.835 0.056654 171.779C0 114.881 0 57.9834 0 0.916504C24.5312 0.916504 49.119 0.916504 73.6501 0.916504ZM37.4483 141.836C47.8159 141.836 57.787 142.005 67.8148 141.779C73.0269 141.666 78.2958 141.384 83.4513 140.426C94.7254 138.452 104.413 133.151 112.062 124.58C121.239 114.261 124.412 101.629 125.035 88.3213C125.262 83.9228 124.469 79.4116 123.846 75.0132C122.033 62.269 116.197 51.724 106.283 43.3219C96.595 35.1453 85.2076 31.4236 72.857 30.8597C62.0927 30.4086 51.3285 30.7469 40.5642 30.7469C39.5445 30.7469 38.5813 30.7469 37.4483 30.7469C37.4483 67.9644 37.4483 104.731 37.4483 141.836Z" fill="#AEB3BA"/>
<path d="M201.745 214.692C216.192 214.579 230.639 214.298 245.029 214.241C250.864 214.241 256.643 214.579 262.478 214.692H270.013C276.868 214.579 283.667 214.185 290.522 214.241C293.468 214.241 295.564 213.113 297.49 211.309C306.498 202.907 314.713 193.828 321.172 183.283C323.041 180.181 324.627 176.911 326.384 173.697C326.1 173.471 325.761 173.302 325.477 173.076C324.571 173.979 323.664 174.824 322.758 175.727C317.772 180.689 313.07 185.933 307.745 190.501C304.175 193.546 299.983 196.027 295.734 198.057C287.406 201.948 278.171 202.061 269.22 203.019C262.761 203.696 256.246 203.809 249.788 203.696C240.496 203.527 231.205 203.076 221.971 202.343C217.948 202.004 213.869 201.046 209.96 199.918C206.674 198.959 205.371 196.704 206.051 193.715C207.864 185.877 209.28 177.869 211.943 170.313C219.478 149.054 227.126 127.795 235.624 106.931C243.442 87.7016 252.224 68.8673 260.835 49.9766C264.744 41.4053 268.993 32.9467 274.942 25.5032C279.134 20.2589 283.78 15.5222 290.295 13.0974C291.712 12.5899 292.448 11.8568 292.505 10.729H265.141C264.914 10.9546 264.744 11.1801 264.631 11.4057C262.931 14.8455 261.288 18.2853 259.815 21.8379C254.547 34.0745 249.278 46.2548 244.066 58.4915C239.533 69.2056 235.001 79.9197 230.525 90.6339C227.013 99.036 223.67 107.495 220.214 115.953C215.059 128.528 209.79 140.99 204.691 153.565C198.969 167.776 193.417 182.042 187.865 196.365C185.599 202.117 183.559 207.925 181.293 214.016C185.202 214.185 188.828 214.467 192.397 214.579H201.745V214.692Z" fill="#AEB3BA"/>
<path d="M204.86 10.8403C205.37 11.9681 205.88 12.9268 206.56 13.7162C212.622 20.2575 213.812 28.2649 212.678 36.4979C211.885 42.4188 210.129 48.2834 208.033 53.866C201.914 70.332 195.626 86.7415 189.054 102.982C184.182 114.993 178.969 126.779 173.587 138.564C166.619 153.902 159.48 169.184 152.115 184.353C149.509 189.71 146.223 194.729 142.994 199.691C139.142 205.668 132.966 209.052 126.621 213.507C136.139 213.507 144.92 213.45 153.645 213.563C155.685 213.563 156.761 212.886 157.441 211.025C158.574 207.98 159.934 204.992 161.237 202.003C165.769 191.289 170.471 180.631 174.834 169.861C180.329 156.271 185.598 142.568 190.867 128.865C197.439 111.722 204.01 94.5233 210.469 77.3243C216.531 61.2531 222.48 45.1256 228.598 29.0544C231.148 22.4003 233.584 15.6335 239.192 10.7839H204.86V10.8403Z" fill="#AEB3BA"/>
</g>
</svg>
