<svg width="25" height="23" viewBox="0 0 25 23" fill="none" xmlns="http://www.w3.org/2000/svg">
<path d="M6.77054 22.9586C5.29766 22.9618 3.88455 22.3764 2.84547 21.3325L1.62563 20.1127C-0.541843 17.9453 -0.541892 14.4311 1.62558 12.2637L1.62563 12.2636L11.6112 2.27798C11.8111 2.07109 12.1408 2.06533 12.3477 2.26519C12.5546 2.46505 12.5604 2.79474 12.3605 3.00168C12.3563 3.00602 12.3521 3.01027 12.3477 3.01447L2.36211 12.999C0.601829 14.7599 0.601829 17.6142 2.36211 19.3752L3.58298 20.596C5.3439 22.3563 8.1982 22.3563 9.95912 20.596L23.0062 7.54893C24.2754 6.27903 24.2754 4.22084 23.0062 2.95094L22.0906 2.0353C20.8032 0.809108 18.78 0.809108 17.4926 2.0353L5.79235 13.7355C5.01367 14.514 5.01358 15.7764 5.79215 16.5551C5.7922 16.5551 5.7923 16.5552 5.79235 16.5553L6.40276 17.1657C7.19613 17.908 8.42921 17.908 9.22258 17.1657L17.8613 8.52702C18.0611 8.32013 18.3908 8.31437 18.5977 8.51423C18.8046 8.71408 18.8103 9.04378 18.6105 9.25072C18.6063 9.25506 18.6021 9.25931 18.5977 9.26351L9.95912 17.9022C8.75168 19.0333 6.87376 19.0333 5.66632 17.9022L5.05591 17.2918C3.87049 16.1064 3.87049 14.1844 5.05591 12.999L16.7561 1.29881C18.4326 -0.377632 21.1506 -0.377632 22.827 1.29877C22.827 1.29877 22.827 1.29877 22.8271 1.29881L23.7427 2.21446C25.4191 3.8909 25.4191 6.60892 23.7428 8.28537C23.7428 8.28537 23.7428 8.28537 23.7427 8.28541L10.6956 21.3325C9.65653 22.3764 8.24342 22.9618 6.77054 22.9586Z" fill="#002366"/>
</svg>
