<svg width="58" height="58" viewBox="0 0 58 58" fill="none" xmlns="http://www.w3.org/2000/svg">
<path d="M50.95 12.187L50.179 11.416L40.084 1.321L39.313 0.55C38.964 0.201 38.48 0 37.985 0H8.963C7.777 0 6.5 0.916 6.5 2.926V39V55.537V56C6.5 56.837 7.342 57.653 8.338 57.91C8.388 57.923 8.436 57.942 8.488 57.952C8.644 57.983 8.803 58 8.963 58H49.037C49.197 58 49.356 57.983 49.512 57.952C49.564 57.942 49.612 57.923 49.662 57.91C50.658 57.653 51.5 56.837 51.5 56V55.537V39V13.978C51.5 13.211 51.408 12.645 50.95 12.187ZM47.935 12H39.5V3.565L47.935 12ZM8.963 56C8.892 56 8.828 55.974 8.765 55.951C8.609 55.877 8.5 55.721 8.5 55.537V41H49.5V55.537C49.5 55.721 49.391 55.876 49.235 55.951C49.172 55.974 49.108 56 49.037 56H8.963ZM8.5 39V2.926C8.5 2.709 8.533 2 8.963 2H37.558C37.525 2.126 37.5 2.256 37.5 2.391V14H49.109C49.244 14 49.373 13.975 49.499 13.942C49.499 13.957 49.5 13.963 49.5 13.978V39H8.5Z" fill="#AEB3BA"/>
<path d="M22.0431 44.7438C21.7101 44.4708 21.3341 44.2648 20.9151 44.1288C20.4961 43.9918 20.0721 43.9238 19.6441 43.9238H16.7461V53.9998H18.3871V50.3628H19.6041C20.1321 50.3628 20.6161 50.2858 21.0531 50.1308C21.4901 49.9758 21.8641 49.7568 22.1741 49.4748C22.4841 49.1928 22.7251 48.8438 22.8991 48.4288C23.0721 48.0138 23.1591 47.5518 23.1591 47.0408C23.1591 46.5578 23.0561 46.1228 22.8511 45.7348C22.6461 45.3468 22.3761 45.0178 22.0431 44.7438ZM21.4211 48.0728C21.3201 48.3508 21.1891 48.5668 21.0251 48.7218C20.8611 48.8768 20.6811 48.9888 20.4851 49.0568C20.2891 49.1248 20.0901 49.1598 19.8901 49.1598H18.3861V45.1678H19.6161C20.0351 45.1678 20.3721 45.2338 20.6281 45.3658C20.8831 45.4978 21.0811 45.6618 21.2231 45.8578C21.3641 46.0538 21.4571 46.2588 21.5031 46.4728C21.5481 46.6868 21.5711 46.8758 21.5711 47.0398C21.5711 47.4508 21.5211 47.7948 21.4211 48.0728Z" fill="#AEB3BA"/>
<path d="M31.9559 45.3998C31.5319 44.9538 30.9989 44.5948 30.3559 44.3268C29.7129 44.0588 28.9679 43.9238 28.1209 43.9238H25.0859V53.9998H28.8999C29.0269 53.9998 29.2229 53.9838 29.4879 53.9518C29.7519 53.9198 30.0439 53.8478 30.3629 53.7328C30.6819 53.6188 31.0119 53.4478 31.3539 53.2198C31.6959 52.9918 32.0029 52.6798 32.2769 52.2828C32.5509 51.8858 32.7759 51.3938 32.9539 50.8058C33.1319 50.2178 33.2209 49.5088 33.2209 48.6798C33.2209 48.0778 33.1159 47.4918 32.9069 46.9228C32.6959 46.3548 32.3799 45.8468 31.9559 45.3998ZM30.7599 51.7298C30.2679 52.4408 29.4659 52.7958 28.3539 52.7958H26.7269V45.1668H27.6839C28.4679 45.1668 29.1059 45.2698 29.5979 45.4748C30.0899 45.6798 30.4799 45.9488 30.7669 46.2818C31.0539 46.6148 31.2469 46.9858 31.3479 47.3958C31.4479 47.8058 31.4979 48.2208 31.4979 48.6398C31.4979 49.9888 31.2519 51.0198 30.7599 51.7298Z" fill="#AEB3BA"/>
<path d="M35.5977 53.9998H37.2657V49.4608H41.4767V48.3398H37.2657V45.1678H41.8997V43.9238H35.5977V53.9998Z" fill="#AEB3BA"/>
<path d="M38.4277 22.9608C37.5087 22.9608 36.3807 23.0808 35.0697 23.3188C33.2397 21.3768 31.3297 18.5408 29.9817 15.7568C31.3187 10.1278 30.6497 9.33076 30.3547 8.95476C30.0407 8.55476 29.5977 7.90576 29.0937 7.90576C28.8827 7.90576 28.3067 8.00176 28.0777 8.07776C27.5017 8.26976 27.1917 8.71376 26.9437 9.29276C26.2367 10.9458 27.2067 13.7638 28.2047 15.9358C27.3517 19.3288 25.9207 23.3898 24.4167 26.6858C20.6267 28.4218 18.6137 30.1268 18.4317 31.7538C18.3657 32.3458 18.5057 33.2148 19.5467 33.9958C19.8317 34.2088 20.1657 34.3218 20.5137 34.3218C21.3887 34.3218 22.2727 33.6518 23.2957 32.2148C24.0417 31.1668 24.8427 29.7378 25.6787 27.9638C28.3567 26.7928 31.6697 25.7348 34.5067 25.1418C36.0867 26.6588 37.5017 27.4268 38.7177 27.4268C39.6137 27.4268 40.3817 27.0148 40.9377 26.2358C41.5167 25.4248 41.6487 24.6988 41.3277 24.0758C40.9427 23.3268 39.9937 22.9608 38.4277 22.9608ZM20.5357 32.6338C20.0677 32.2748 20.0947 32.0328 20.1047 31.9418C20.1667 31.3858 21.0377 30.3988 23.1747 29.1978C21.5547 32.1898 20.6847 32.5868 20.5357 32.6338ZM28.7357 9.71176C28.7787 9.69776 29.7807 10.8128 28.8317 12.9278C27.4057 11.4688 28.6377 9.74476 28.7357 9.71176ZM26.6687 25.7378C27.6837 23.3188 28.6277 20.6478 29.3427 18.1738C30.4657 20.1918 31.8147 22.1498 33.1647 23.7178C31.0307 24.2188 28.7587 24.9258 26.6687 25.7378ZM39.5697 25.2588C39.2617 25.6898 38.5937 25.6998 38.3597 25.6998C37.8267 25.6998 37.6277 25.3828 36.8127 24.7558C37.4847 24.6698 38.1187 24.6478 38.6237 24.6478C39.5127 24.6478 39.6757 24.7788 39.7987 24.8448C39.7767 24.9158 39.7187 25.0498 39.5697 25.2588Z" fill="#AEB3BA"/>
</svg>
