<svg width="30" height="30" viewBox="0 0 30 30" fill="none" xmlns="http://www.w3.org/2000/svg">
<path fill-rule="evenodd" clip-rule="evenodd" d="M3.38409 0.599636C2.97224 0.925853 2.63806 1.24101 2.64115 1.29983C2.64438 1.35879 4.19513 2.99901 6.08741 4.94481L9.52779 8.48263L10.0655 7.9667C10.97 7.0989 11.2317 6.30319 10.8566 5.56157C10.6239 5.10136 6.02328 0.470506 5.54774 0.217699C4.83319 -0.162027 4.20586 -0.0513222 3.38409 0.599636ZM1.23866 2.67884C0.375701 3.63597 0.087115 4.43625 0.0165129 6.06689C-0.0345265 7.24867 0.0209255 7.75001 0.351284 9.08878C1.36295 13.1894 3.79784 16.9597 8.43772 21.6097C12.8849 26.0666 16.5298 28.4958 20.4214 29.5966C21.5896 29.9271 22.132 29.996 23.5954 29.9998C25.0944 30.0036 25.463 29.9569 26.0403 29.6893C26.7616 29.355 27.973 28.3492 27.9027 28.1429C27.8798 28.0752 26.3081 26.4596 24.4104 24.5526L20.9599 21.0852L20.3599 21.6753C19.4827 22.5381 19.2669 22.4884 17.2386 20.957C13.752 18.3245 11.7157 16.2838 9.08903 12.7896C7.57932 10.7812 7.50783 10.5035 8.3027 9.73133C8.58819 9.45391 8.80338 9.14745 8.78073 9.0503C8.72822 8.82521 2.08207 2.07034 1.91306 2.07034C1.84378 2.07034 1.54034 2.34408 1.23866 2.67884ZM22.86 19.2982C22.2915 19.652 21.7105 20.2855 21.7778 20.478C21.883 20.7785 28.4237 27.4247 28.6142 27.4247C28.722 27.4247 29.0765 27.0871 29.402 26.6744C30.0515 25.8508 30.162 25.2221 29.7831 24.506C29.5308 24.0294 24.9101 19.4188 24.4509 19.1856C23.9756 18.9441 23.3586 18.9879 22.86 19.2982Z" fill="#E2D7B9"/>
</svg>
