<svg width="25" height="25" viewBox="0 0 25 25" fill="none" xmlns="http://www.w3.org/2000/svg">
<g clip-path="url(#clip0)">
<path d="M10.8203 11.3652L10.8203 21.8652L0.320312 21.8652L0.320313 11.2152C0.320314 4.01523 7.07031 3.11523 7.07031 3.11523L7.97031 5.21523C7.97031 5.21523 4.97031 5.66524 4.37031 8.06523C3.77031 9.86523 4.97031 11.3652 4.97031 11.3652L10.8203 11.3652Z" fill="#E2D7B9"/>
<path d="M24.3203 11.3652L24.3203 21.8652L13.8203 21.8652L13.8203 11.2152C13.8203 4.01523 20.5703 3.11523 20.5703 3.11523L21.4703 5.21523C21.4703 5.21523 18.4703 5.66524 17.8703 8.06523C17.2703 9.86523 18.4703 11.3652 18.4703 11.3652L24.3203 11.3652Z" fill="#E2D7B9"/>
</g>
<defs>
<clipPath id="clip0">
<rect width="24" height="24" fill="white" transform="translate(24.3203 24.8652) rotate(-180)"/>
</clipPath>
</defs>
</svg>
