<svg width="60" height="60" viewBox="0 0 60 60" fill="none" xmlns="http://www.w3.org/2000/svg">
<path d="M58.8281 4.6875H52.7344V3.75C52.7344 1.68223 51.0521 0 48.9844 0C46.9166 0 45.2344 1.68223 45.2344 3.75V4.6875H40.0781V3.75C40.0781 1.68223 38.3959 0 36.3281 0C34.2604 0 32.5781 1.68223 32.5781 3.75V4.6875H27.4219V3.75C27.4219 1.68223 25.7396 0 23.6719 0C21.6041 0 19.9219 1.68223 19.9219 3.75V4.6875H14.7656V3.75C14.7656 1.68223 13.0834 0 11.0156 0C8.94785 0 7.26562 1.68223 7.26562 3.75V4.6875H1.17188C0.524648 4.6875 0 5.21215 0 5.85938V58.8281C0 59.4754 0.524648 60 1.17188 60H58.8281C59.4754 60 60 59.4754 60 58.8281V5.85938C60 5.21215 59.4754 4.6875 58.8281 4.6875ZM47.5781 3.75C47.5781 2.97457 48.2089 2.34375 48.9844 2.34375C49.7598 2.34375 50.3906 2.97457 50.3906 3.75V8.90625C50.3906 9.68168 49.7598 10.3125 48.9844 10.3125C48.2089 10.3125 47.5781 9.68168 47.5781 8.90625V3.75ZM34.9219 3.75C34.9219 2.97457 35.5527 2.34375 36.3281 2.34375C37.1036 2.34375 37.7344 2.97457 37.7344 3.75V8.90625C37.7344 9.68168 37.1036 10.3125 36.3281 10.3125C35.5527 10.3125 34.9219 9.68168 34.9219 8.90625V3.75ZM22.2656 3.75C22.2656 2.97457 22.8964 2.34375 23.6719 2.34375C24.4473 2.34375 25.0781 2.97457 25.0781 3.75V8.90625C25.0781 9.68168 24.4473 10.3125 23.6719 10.3125C22.8964 10.3125 22.2656 9.68168 22.2656 8.90625V3.75ZM9.60938 3.75C9.60938 2.97457 10.2402 2.34375 11.0156 2.34375C11.7911 2.34375 12.4219 2.97457 12.4219 3.75V8.90625C12.4219 9.68168 11.7911 10.3125 11.0156 10.3125C10.2402 10.3125 9.60938 9.68168 9.60938 8.90625V3.75ZM2.34375 57.6562V20.1562H24.7266C25.3738 20.1562 25.8984 19.6316 25.8984 18.9844C25.8984 18.3371 25.3738 17.8125 24.7266 17.8125H2.34375V7.03125H7.26562V8.90625C7.26562 10.974 8.94785 12.6562 11.0156 12.6562C13.0834 12.6562 14.7656 10.974 14.7656 8.90625V7.03125H19.9219V8.90625C19.9219 10.974 21.6041 12.6562 23.6719 12.6562C25.7396 12.6562 27.4219 10.974 27.4219 8.90625V7.03125H32.5781V8.90625C32.5781 10.974 34.2604 12.6562 36.3281 12.6562C38.3959 12.6562 40.0781 10.974 40.0781 8.90625V7.03125H45.2344V8.90625C45.2344 10.974 46.9166 12.6562 48.9844 12.6562C51.0521 12.6562 52.7344 10.974 52.7344 8.90625V7.03125H57.6562V17.8125H35.2734C34.6262 17.8125 34.1016 18.3371 34.1016 18.9844C34.1016 19.6316 34.6262 20.1562 35.2734 20.1562H57.6562V57.6562H2.34375Z" fill="#E2D7B9"/>
<path d="M52.2656 24.375H7.73438C7.08715 24.375 6.5625 24.8996 6.5625 25.5469V52.2656C6.5625 52.9129 7.08715 53.4375 7.73438 53.4375H52.2656C52.9129 53.4375 53.4375 52.9129 53.4375 52.2656V25.5469C53.4375 24.8996 52.9129 24.375 52.2656 24.375ZM8.90625 35.625H17.7102V42.1875H8.90625V35.625ZM20.0539 35.625H28.843V42.1875H20.0539V35.625ZM28.843 33.2812H20.0539V26.7188H28.843V33.2812ZM31.1868 26.7188H39.9758V33.2812H31.1868V26.7188ZM28.843 44.5312V51.0938H20.0539V44.5312H28.843ZM31.1868 44.5312H39.9758V51.0938H31.1868V44.5312ZM31.1868 42.1875V35.625H39.9758V42.1875H31.1868ZM42.3196 35.625H51.0938V42.1875H42.3196V35.625ZM51.0938 33.2812H42.3196V26.7188H51.0938V33.2812ZM17.7102 26.7188V33.2812H8.90625V26.7188H17.7102ZM8.90625 44.5312H17.7102V51.0938H8.90625V44.5312ZM42.3196 51.0938V44.5312H51.0938V51.0938H42.3196Z" fill="#E2D7B9"/>
<path d="M30 20.1562C30.3082 20.1562 30.6105 20.0309 30.8285 19.8129C31.0465 19.5949 31.1719 19.2926 31.1719 18.9844C31.1719 18.6762 31.0465 18.3738 30.8285 18.1559C30.6105 17.9379 30.3082 17.8125 30 17.8125C29.6918 17.8125 29.3895 17.9379 29.1715 18.1559C28.9535 18.3738 28.8281 18.6762 28.8281 18.9844C28.8281 19.2926 28.9535 19.5949 29.1715 19.8129C29.3895 20.0309 29.6918 20.1562 30 20.1562Z" fill="#E2D7B9"/>
</svg>
