<svg width="39" height="35" viewBox="0 0 39 35" fill="none" xmlns="http://www.w3.org/2000/svg">
<path d="M39 35V1.54846H32.7797V0H26.7816V1.54846H12.1443V0H6.24494V1.54846H0V35H39ZM30.8051 1.96629V5.01405H28.7563V1.96629H30.8051ZM8.21962 5.01405V1.96629H10.1696V5.01405H8.21962ZM37.0253 33.0337H1.97468V10.4951H37.0253V33.0337ZM24.7329 16.0253C23.2865 14.5653 21.5241 13.8378 19.4506 13.8378C17.3772 13.8378 15.6148 14.5653 14.1684 16.0253C12.7022 17.4853 11.9715 19.2353 11.9715 21.2851C11.9715 23.3497 12.7022 25.1096 14.1684 26.5695C15.6148 28.0295 17.3772 28.757 19.4506 28.757C21.5241 28.757 23.2865 28.0295 24.7329 26.5695C26.1991 25.1096 26.9297 23.3497 26.9297 21.2851C26.9297 19.2353 26.1991 17.4853 24.7329 16.0253ZM18.2658 16.9347H20.2405V21.2851L23.1038 23.6938L21.8203 25.1931L18.2658 22.1945V16.9347Z" fill="#E2D7B9"/>
</svg>
