<svg width="30" height="30" viewBox="0 0 30 30" fill="none" xmlns="http://www.w3.org/2000/svg">
<path d="M19.7661 11.1625C19.7661 11.7217 19.3062 12.175 18.7389 12.175C18.1716 12.175 17.7117 11.7217 17.7117 11.1625C17.7117 10.6033 18.1716 10.15 18.7389 10.15C19.3062 10.15 19.7661 10.6033 19.7661 11.1625Z" fill="#3A4047"/>
<path fill-rule="evenodd" clip-rule="evenodd" d="M14.9726 18.25C16.8636 18.25 18.3965 16.739 18.3965 14.875C18.3965 13.011 16.8636 11.5 14.9726 11.5C13.0816 11.5 11.5487 13.011 11.5487 14.875C11.5487 16.739 13.0816 18.25 14.9726 18.25ZM14.9726 16.9C16.1072 16.9 17.0269 15.9934 17.0269 14.875C17.0269 13.7566 16.1072 12.85 14.9726 12.85C13.838 12.85 12.9182 13.7566 12.9182 14.875C12.9182 15.9934 13.838 16.9 14.9726 16.9Z" fill="#3A4047"/>
<path fill-rule="evenodd" clip-rule="evenodd" d="M8.12476 14.605C8.12476 12.3368 8.12476 11.2027 8.57258 10.3363C8.96649 9.57428 9.59504 8.95471 10.3681 8.56642C11.247 8.125 12.3976 8.125 14.6987 8.125H15.2465C17.5476 8.125 18.6981 8.125 19.577 8.56642C20.3501 8.95471 20.9787 9.57428 21.3726 10.3363C21.8204 11.2027 21.8204 12.3368 21.8204 14.605V15.145C21.8204 17.4132 21.8204 18.5473 21.3726 19.4137C20.9787 20.1757 20.3501 20.7953 19.577 21.1836C18.6981 21.625 17.5476 21.625 15.2465 21.625H14.6987C12.3976 21.625 11.247 21.625 10.3681 21.1836C9.59504 20.7953 8.96649 20.1757 8.57258 19.4137C8.12476 18.5473 8.12476 17.4132 8.12476 15.145V14.605ZM14.6987 9.475H15.2465C16.4196 9.475 17.2171 9.47605 17.8336 9.52569C18.434 9.57405 18.7411 9.6617 18.9553 9.76928C19.4707 10.0281 19.8897 10.4412 20.1523 10.9492C20.2614 11.1604 20.3504 11.463 20.3994 12.0549C20.4498 12.6625 20.4508 13.4486 20.4508 14.605V15.145C20.4508 16.3014 20.4498 17.0875 20.3994 17.6951C20.3504 18.287 20.2614 18.5896 20.1523 18.8008C19.8897 19.3088 19.4707 19.7219 18.9553 19.9807C18.7411 20.0883 18.434 20.1759 17.8336 20.2243C17.2171 20.274 16.4196 20.275 15.2465 20.275H14.6987C13.5255 20.275 12.728 20.274 12.1116 20.2243C11.5112 20.1759 11.2041 20.0883 10.9899 19.9807C10.4745 19.7219 10.0555 19.3088 9.79287 18.8008C9.68373 18.5896 9.59481 18.287 9.54575 17.6951C9.49539 17.0875 9.49432 16.3014 9.49432 15.145V14.605C9.49432 13.4486 9.49539 12.6625 9.54575 12.0549C9.59481 11.463 9.68373 11.1604 9.79287 10.9492C10.0555 10.4412 10.4745 10.0281 10.9899 9.76928C11.2041 9.6617 11.5112 9.57405 12.1116 9.52569C12.728 9.47605 13.5255 9.475 14.6987 9.475Z" fill="#3A4047"/>
<circle cx="15" cy="15" r="14.5" stroke="#3A4047"/>
</svg>
