<svg width="40" height="40" viewBox="0 0 40 40" fill="none" xmlns="http://www.w3.org/2000/svg">
<mask id="path-1-inside-1" fill="white">
<path d="M26.3551 14.8835C26.3551 15.6291 25.7419 16.2335 24.9855 16.2335C24.2291 16.2335 23.6159 15.6291 23.6159 14.8835C23.6159 14.1379 24.2291 13.5335 24.9855 13.5335C25.7419 13.5335 26.3551 14.1379 26.3551 14.8835Z"/>
<path fill-rule="evenodd" clip-rule="evenodd" d="M19.9637 24.3335C22.485 24.3335 24.529 22.3188 24.529 19.8335C24.529 17.3482 22.485 15.3335 19.9637 15.3335C17.4424 15.3335 15.3985 17.3482 15.3985 19.8335C15.3985 22.3188 17.4424 24.3335 19.9637 24.3335ZM19.9637 22.5335C21.4765 22.5335 22.7029 21.3247 22.7029 19.8335C22.7029 18.3423 21.4765 17.1335 19.9637 17.1335C18.451 17.1335 17.2246 18.3423 17.2246 19.8335C17.2246 21.3247 18.451 22.5335 19.9637 22.5335Z"/>
<path fill-rule="evenodd" clip-rule="evenodd" d="M10.8333 19.4735C10.8333 16.4492 10.8333 14.9371 11.4304 13.7819C11.9556 12.7659 12.7937 11.9398 13.8245 11.4221C14.9964 10.8335 16.5304 10.8335 19.5985 10.8335H20.329C23.3971 10.8335 24.9311 10.8335 26.103 11.4221C27.1338 11.9398 27.9719 12.7659 28.4971 13.7819C29.0942 14.9371 29.0942 16.4492 29.0942 19.4735V20.1935C29.0942 23.2178 29.0942 24.7299 28.4971 25.885C27.9719 26.9011 27.1338 27.7272 26.103 28.2449C24.9311 28.8335 23.3971 28.8335 20.329 28.8335H19.5985C16.5304 28.8335 14.9964 28.8335 13.8245 28.2449C12.7937 27.7272 11.9556 26.9011 11.4304 25.885C10.8333 24.7299 10.8333 23.2178 10.8333 20.1935V19.4735ZM19.5985 12.6335H20.329C21.8932 12.6335 22.9565 12.6349 23.7784 12.7011C24.579 12.7656 24.9884 12.8824 25.274 13.0259C25.9612 13.371 26.5199 13.9217 26.87 14.5991C27.0156 14.8806 27.1341 15.2842 27.1995 16.0734C27.2667 16.8835 27.2681 17.9317 27.2681 19.4735V20.1935C27.2681 21.7353 27.2667 22.7835 27.1995 23.5936C27.1341 24.3828 27.0156 24.7863 26.87 25.0679C26.5199 25.7452 25.9612 26.296 25.274 26.6411C24.9884 26.7846 24.579 26.9014 23.7784 26.9659C22.9565 27.0321 21.8932 27.0335 20.329 27.0335H19.5985C18.0343 27.0335 16.971 27.0321 16.1491 26.9659C15.3485 26.9014 14.9391 26.7846 14.6535 26.6411C13.9663 26.296 13.4076 25.7452 13.0575 25.0679C12.9119 24.7863 12.7934 24.3828 12.728 23.5936C12.6608 22.7835 12.6594 21.7353 12.6594 20.1935V19.4735C12.6594 17.9317 12.6608 16.8835 12.728 16.0734C12.7934 15.2842 12.9119 14.8806 13.0575 14.5991C13.4076 13.9217 13.9663 13.371 14.6535 13.0259C14.9391 12.8824 15.3485 12.7656 16.1491 12.7011C16.971 12.6349 18.0343 12.6335 19.5985 12.6335Z"/>
</mask>
<path d="M26.3551 14.8835C26.3551 15.6291 25.7419 16.2335 24.9855 16.2335C24.2291 16.2335 23.6159 15.6291 23.6159 14.8835C23.6159 14.1379 24.2291 13.5335 24.9855 13.5335C25.7419 13.5335 26.3551 14.1379 26.3551 14.8835Z" fill="#E2D7B9"/>
<path fill-rule="evenodd" clip-rule="evenodd" d="M19.9637 24.3335C22.485 24.3335 24.529 22.3188 24.529 19.8335C24.529 17.3482 22.485 15.3335 19.9637 15.3335C17.4424 15.3335 15.3985 17.3482 15.3985 19.8335C15.3985 22.3188 17.4424 24.3335 19.9637 24.3335ZM19.9637 22.5335C21.4765 22.5335 22.7029 21.3247 22.7029 19.8335C22.7029 18.3423 21.4765 17.1335 19.9637 17.1335C18.451 17.1335 17.2246 18.3423 17.2246 19.8335C17.2246 21.3247 18.451 22.5335 19.9637 22.5335Z" fill="#E2D7B9"/>
<path fill-rule="evenodd" clip-rule="evenodd" d="M10.8333 19.4735C10.8333 16.4492 10.8333 14.9371 11.4304 13.7819C11.9556 12.7659 12.7937 11.9398 13.8245 11.4221C14.9964 10.8335 16.5304 10.8335 19.5985 10.8335H20.329C23.3971 10.8335 24.9311 10.8335 26.103 11.4221C27.1338 11.9398 27.9719 12.7659 28.4971 13.7819C29.0942 14.9371 29.0942 16.4492 29.0942 19.4735V20.1935C29.0942 23.2178 29.0942 24.7299 28.4971 25.885C27.9719 26.9011 27.1338 27.7272 26.103 28.2449C24.9311 28.8335 23.3971 28.8335 20.329 28.8335H19.5985C16.5304 28.8335 14.9964 28.8335 13.8245 28.2449C12.7937 27.7272 11.9556 26.9011 11.4304 25.885C10.8333 24.7299 10.8333 23.2178 10.8333 20.1935V19.4735ZM19.5985 12.6335H20.329C21.8932 12.6335 22.9565 12.6349 23.7784 12.7011C24.579 12.7656 24.9884 12.8824 25.274 13.0259C25.9612 13.371 26.5199 13.9217 26.87 14.5991C27.0156 14.8806 27.1341 15.2842 27.1995 16.0734C27.2667 16.8835 27.2681 17.9317 27.2681 19.4735V20.1935C27.2681 21.7353 27.2667 22.7835 27.1995 23.5936C27.1341 24.3828 27.0156 24.7863 26.87 25.0679C26.5199 25.7452 25.9612 26.296 25.274 26.6411C24.9884 26.7846 24.579 26.9014 23.7784 26.9659C22.9565 27.0321 21.8932 27.0335 20.329 27.0335H19.5985C18.0343 27.0335 16.971 27.0321 16.1491 26.9659C15.3485 26.9014 14.9391 26.7846 14.6535 26.6411C13.9663 26.296 13.4076 25.7452 13.0575 25.0679C12.9119 24.7863 12.7934 24.3828 12.728 23.5936C12.6608 22.7835 12.6594 21.7353 12.6594 20.1935V19.4735C12.6594 17.9317 12.6608 16.8835 12.728 16.0734C12.7934 15.2842 12.9119 14.8806 13.0575 14.5991C13.4076 13.9217 13.9663 13.371 14.6535 13.0259C14.9391 12.8824 15.3485 12.7656 16.1491 12.7011C16.971 12.6349 18.0343 12.6335 19.5985 12.6335Z" fill="#E2D7B9"/>
<path d="M23.7784 12.7011L23.288 18.7904L23.288 18.7904L23.7784 12.7011ZM25.274 13.0259L22.5321 18.4851L22.5321 18.4851L25.274 13.0259ZM26.87 14.5991L21.4431 17.4043L21.4431 17.4044L26.87 14.5991ZM27.1995 16.0734L21.1114 16.578L21.1114 16.578L27.1995 16.0734ZM27.1995 23.5936L21.1114 23.089L21.1114 23.089L27.1995 23.5936ZM26.87 25.0679L21.4431 22.2626L21.4431 22.2626L26.87 25.0679ZM25.274 26.6411L22.5321 21.1819L22.5321 21.1819L25.274 26.6411ZM23.7784 26.9659L23.288 20.8766L23.288 20.8766L23.7784 26.9659ZM16.1491 26.9659L16.6395 20.8766L16.6395 20.8766L16.1491 26.9659ZM14.6535 26.6411L17.3954 21.1819L17.3954 21.1819L14.6535 26.6411ZM13.0575 25.0679L18.4844 22.2626L18.4844 22.2626L13.0575 25.0679ZM12.728 23.5936L18.8161 23.089V23.089L12.728 23.5936ZM12.728 16.0734L18.8161 16.578V16.578L12.728 16.0734ZM13.0575 14.5991L18.4844 17.4043L18.4844 17.4043L13.0575 14.5991ZM14.6535 13.0259L17.3954 18.4851L17.3954 18.4851L14.6535 13.0259ZM16.1491 12.7011L16.6395 18.7904L16.6395 18.7904L16.1491 12.7011ZM11.4304 13.7819L16.8573 16.5872L11.4304 13.7819ZM13.8245 11.4221L16.5664 16.8812L13.8245 11.4221ZM26.103 11.4221L28.8449 5.96288L28.8449 5.96288L26.103 11.4221ZM28.4971 13.7819L23.0702 16.5872L23.0702 16.5872L28.4971 13.7819ZM28.4971 25.885L23.0702 23.0798L23.0702 23.0798L28.4971 25.885ZM26.103 28.2449L23.3611 22.7857H23.3611L26.103 28.2449ZM13.8245 28.2449L16.5664 22.7857L16.5663 22.7857L13.8245 28.2449ZM11.4304 25.885L6.00351 28.6903L6.00351 28.6903L11.4304 25.885ZM20.329 6.52445H19.5985V18.7425H20.329V6.52445ZM24.2688 6.61176C23.1441 6.52118 21.7911 6.52445 20.329 6.52445V18.7425C21.9952 18.7425 22.7688 18.7486 23.288 18.7904L24.2688 6.61176ZM28.0158 7.56669C26.7317 6.92174 25.4374 6.70588 24.2688 6.61176L23.288 18.7904C23.4926 18.8069 23.4805 18.8178 23.3396 18.7851C23.1663 18.7449 22.8745 18.657 22.5321 18.4851L28.0158 7.56669ZM32.2969 11.7939C31.349 9.96015 29.8453 8.48552 28.0158 7.56669L22.5321 18.4851C22.0771 18.2565 21.6907 17.8833 21.4431 17.4043L32.2969 11.7939ZM33.2877 15.5687C33.1906 14.3977 32.9667 13.0895 32.2969 11.7939L21.4431 17.4044C21.262 17.054 21.1673 16.7511 21.1226 16.5637C21.0858 16.4098 21.0953 16.3848 21.1114 16.578L33.2877 15.5687ZM33.3771 19.4735C33.3771 18.0367 33.3807 16.6904 33.2877 15.5687L21.1114 16.578C21.1527 17.0766 21.159 17.8266 21.159 19.4735H33.3771ZM33.3771 20.1935V19.4735H21.159V20.1935H33.3771ZM33.2877 24.0983C33.3807 22.9766 33.3771 21.6303 33.3771 20.1935H21.159C21.159 21.8404 21.1527 22.5904 21.1114 23.089L33.2877 24.0983ZM32.2969 27.8731C32.9667 26.5775 33.1906 25.2693 33.2877 24.0983L21.1114 23.089C21.0953 23.2822 21.0858 23.2572 21.1226 23.1033C21.1673 22.9159 21.262 22.613 21.4431 22.2626L32.2969 27.8731ZM28.0158 32.1003C29.8453 31.1815 31.349 29.7068 32.2969 27.8731L21.4431 22.2626C21.6907 21.7836 22.0771 21.4105 22.5321 21.1819L28.0158 32.1003ZM24.2688 33.0552C25.4374 32.9611 26.7317 32.7453 28.0158 32.1003L22.5321 21.1819C22.8745 21.01 23.1663 20.9221 23.3396 20.8819C23.4805 20.8492 23.4927 20.8601 23.288 20.8766L24.2688 33.0552ZM20.329 33.1425C21.7911 33.1425 23.1441 33.1458 24.2688 33.0552L23.288 20.8766C22.7688 20.9184 21.9952 20.9244 20.329 20.9244V33.1425ZM19.5985 33.1425H20.329V20.9244H19.5985V33.1425ZM15.6587 33.0552C16.7834 33.1458 18.1364 33.1425 19.5985 33.1425V20.9244C17.9323 20.9244 17.1587 20.9184 16.6395 20.8766L15.6587 33.0552ZM11.9117 32.1003C13.1958 32.7453 14.4901 32.9611 15.6587 33.0552L16.6395 20.8766C16.4348 20.8601 16.447 20.8492 16.5879 20.8819C16.7612 20.9221 17.053 21.01 17.3954 21.1819L11.9117 32.1003ZM7.63056 27.8731C8.57846 29.7069 10.0822 31.1815 11.9117 32.1003L17.3954 21.1819C17.8504 21.4105 18.2368 21.7836 18.4844 22.2626L7.63056 27.8731ZM6.6398 24.0983C6.73687 25.2693 6.96085 26.5775 7.63057 27.8731L18.4844 22.2626C18.6655 22.613 18.7602 22.9159 18.8049 23.1033C18.8416 23.2572 18.8322 23.2822 18.8161 23.089L6.6398 24.0983ZM6.55035 20.1935C6.55035 21.6303 6.54683 22.9766 6.6398 24.0983L18.8161 23.089C18.7748 22.5904 18.7684 21.8404 18.7684 20.1935H6.55035ZM6.55035 19.4735V20.1935H18.7684V19.4735H6.55035ZM6.6398 15.5687C6.54683 16.6904 6.55035 18.0367 6.55035 19.4735H18.7684C18.7684 17.8266 18.7748 17.0766 18.8161 16.578L6.6398 15.5687ZM7.63057 11.7939C6.96085 13.0895 6.73687 14.3977 6.6398 15.5687L18.8161 16.578C18.8322 16.3848 18.8416 16.4098 18.8049 16.5637C18.7602 16.7511 18.6655 17.054 18.4844 17.4043L7.63057 11.7939ZM11.9117 7.56669C10.0822 8.48552 8.57846 9.96014 7.63057 11.7939L18.4844 17.4043C18.2368 17.8833 17.8504 18.2565 17.3954 18.4851L11.9117 7.56669ZM15.6587 6.61176C14.4901 6.70588 13.1958 6.92174 11.9117 7.56669L17.3954 18.4851C17.053 18.657 16.7612 18.7449 16.5879 18.7851C16.447 18.8178 16.4348 18.8069 16.6395 18.7904L15.6587 6.61176ZM19.5985 6.52445C18.1364 6.52445 16.7834 6.52118 15.6587 6.61176L16.6395 18.7904C17.1587 18.7486 17.9323 18.7425 19.5985 18.7425V6.52445ZM6.00351 10.9767C5.18162 12.5667 4.92631 14.1369 4.81978 15.4222C4.71938 16.6335 4.72427 18.0636 4.72427 19.4735H16.9424C16.9424 17.8591 16.9472 17.021 16.9961 16.4314C17.0389 15.9158 17.0821 16.1523 16.8573 16.5872L6.00351 10.9767ZM11.0826 5.96288C8.9096 7.05428 7.12648 8.80427 6.00351 10.9767L16.8573 16.5872C16.7848 16.7275 16.6778 16.8253 16.5664 16.8812L11.0826 5.96288ZM19.5985 4.72445C18.1639 4.72445 16.7257 4.71983 15.51 4.81774C14.2256 4.92118 12.6655 5.16789 11.0826 5.96288L16.5664 16.8812C16.1554 17.0877 15.9482 17.0401 16.4908 16.9964C17.1022 16.9472 17.9651 16.9425 19.5985 16.9425V4.72445ZM20.329 4.72445H19.5985V16.9425H20.329V4.72445ZM28.8449 5.96288C27.262 5.16789 25.7019 4.92118 24.4175 4.81774C23.2018 4.71983 21.7636 4.72445 20.329 4.72445V16.9425C21.9624 16.9425 22.8253 16.9472 23.4367 16.9964C23.9793 17.0401 23.7721 17.0877 23.3611 16.8812L28.8449 5.96288ZM33.924 10.9767C32.801 8.80427 31.0179 7.05428 28.8449 5.96288L23.3611 16.8812C23.2497 16.8253 23.1427 16.7275 23.0702 16.5872L33.924 10.9767ZM35.2032 19.4735C35.2032 18.0636 35.2081 16.6335 35.1077 15.4222C35.0012 14.1369 34.7459 12.5667 33.924 10.9767L23.0702 16.5872C22.8454 16.1523 22.8886 15.9158 22.9314 16.4314C22.9802 17.021 22.9851 17.8591 22.9851 19.4735H35.2032ZM35.2032 20.1935V19.4735H22.9851V20.1935H35.2032ZM33.924 28.6903C34.7459 27.1002 35.0012 25.5301 35.1077 24.2448C35.2081 23.0335 35.2032 21.6034 35.2032 20.1935H22.9851C22.9851 21.8079 22.9802 22.646 22.9314 23.2356C22.8886 23.7512 22.8454 23.5147 23.0702 23.0798L33.924 28.6903ZM28.8449 33.7041C31.0179 32.6127 32.801 30.8627 33.924 28.6903L23.0702 23.0798C23.1427 22.9395 23.2497 22.8417 23.3611 22.7857L28.8449 33.7041ZM20.329 34.9425C21.7636 34.9425 23.2018 34.9472 24.4175 34.8493C25.7019 34.7458 27.262 34.4991 28.8449 33.7041L23.3611 22.7857C23.7721 22.5793 23.9793 22.6269 23.4367 22.6706C22.8253 22.7198 21.9624 22.7244 20.329 22.7244V34.9425ZM19.5985 34.9425H20.329V22.7244H19.5985V34.9425ZM11.0826 33.7041C12.6655 34.4991 14.2256 34.7458 15.51 34.8493C16.7257 34.9472 18.1639 34.9425 19.5985 34.9425V22.7244C17.9651 22.7244 17.1022 22.7198 16.4908 22.6706C15.9482 22.6269 16.1554 22.5793 16.5664 22.7857L11.0826 33.7041ZM6.00351 28.6903C7.12648 30.8627 8.9096 32.6127 11.0826 33.7041L16.5663 22.7857C16.6778 22.8417 16.7848 22.9395 16.8573 23.0798L6.00351 28.6903ZM4.72427 20.1935C4.72427 21.6034 4.71938 23.0335 4.81978 24.2448C4.92631 25.5301 5.18162 27.1002 6.00351 28.6903L16.8573 23.0798C17.0821 23.5147 17.0389 23.7512 16.9961 23.2356C16.9472 22.646 16.9424 21.8079 16.9424 20.1935H4.72427ZM4.72427 19.4735V20.1935H16.9424V19.4735H4.72427ZM24.9855 22.3425C29.0326 22.3425 32.4641 19.0856 32.4641 14.8835H20.246C20.246 12.1726 22.4511 10.1244 24.9855 10.1244V22.3425ZM17.5069 14.8835C17.5069 19.0856 20.9383 22.3425 24.9855 22.3425V10.1244C27.5199 10.1244 29.725 12.1726 29.725 14.8835H17.5069ZM24.9855 7.42445C20.9383 7.42445 17.5069 10.6814 17.5069 14.8835H29.725C29.725 17.5944 27.5199 19.6425 24.9855 19.6425V7.42445ZM32.4641 14.8835C32.4641 10.6814 29.0326 7.42445 24.9855 7.42445V19.6425C22.4511 19.6425 20.246 17.5944 20.246 14.8835H32.4641ZM16.5938 19.8335C16.5938 17.8682 18.1858 16.4244 19.9637 16.4244V28.6425C24.7673 28.6425 28.8119 24.7812 28.8119 19.8335H16.5938ZM19.9637 23.2425C18.1858 23.2425 16.5938 21.7988 16.5938 19.8335H28.8119C28.8119 14.8858 24.7673 11.0244 19.9637 11.0244V23.2425ZM23.3337 19.8335C23.3337 21.7988 21.7417 23.2425 19.9637 23.2425V11.0244C15.1602 11.0244 11.1156 14.8858 11.1156 19.8335H23.3337ZM19.9637 16.4244C21.7417 16.4244 23.3337 17.8682 23.3337 19.8335H11.1156C11.1156 24.7812 15.1602 28.6425 19.9637 28.6425V16.4244ZM18.4199 19.8335C18.4199 18.8623 19.1943 18.2244 19.9637 18.2244V30.4425C25.7758 30.4425 30.638 25.7753 30.638 19.8335H18.4199ZM19.9637 21.4425C19.1943 21.4425 18.4199 20.8047 18.4199 19.8335H30.638C30.638 13.8917 25.7758 9.22445 19.9637 9.22445V21.4425ZM21.5076 19.8335C21.5076 20.8047 20.7332 21.4425 19.9637 21.4425V9.22445C14.1517 9.22445 9.28948 13.8917 9.28948 19.8335H21.5076ZM19.9637 18.2244C20.7332 18.2244 21.5076 18.8623 21.5076 19.8335H9.28948C9.28948 25.7753 14.1517 30.4425 19.9637 30.4425V18.2244Z" fill="#E2D7B9" mask="url(#path-1-inside-1)"/>
<circle cx="20" cy="20" r="19" stroke="#E2D7B9" stroke-width="2"/>
</svg>
