<svg width="40" height="40" viewBox="0 0 40 40" fill="none" xmlns="http://www.w3.org/2000/svg">
<path d="M24.5436 15.4786C24.5436 18.0394 22.5248 20.1224 20.0412 20.1224C17.5582 20.1224 15.5388 18.0394 15.5388 15.4786C15.5388 12.9171 17.5582 10.8335 20.0412 10.8335C22.5248 10.8335 24.5436 12.9171 24.5436 15.4786ZM21.9055 15.4786C21.9055 14.4181 21.0692 13.5557 20.0412 13.5557C19.014 13.5557 18.177 14.4181 18.177 15.4786C18.177 16.5383 19.014 17.4013 20.0412 17.4013C21.0692 17.4013 21.9055 16.5383 21.9055 15.4786Z" fill="#E2D7B9"/>
<path d="M21.8744 23.9136C22.7909 23.6982 23.6748 23.3241 24.4889 22.7967C25.105 22.3959 25.2906 21.5557 24.9024 20.9201C24.5145 20.2831 23.7006 20.0914 23.0834 20.4921C21.2392 21.6886 18.8647 21.6883 17.0215 20.4921C16.4043 20.0914 15.5902 20.2831 15.2031 20.9201C14.8149 21.5563 14.9999 22.3959 15.616 22.7967C16.4302 23.3236 17.314 23.6982 18.2305 23.9136L15.7133 26.5105C15.1987 27.0419 15.1987 27.9034 15.7138 28.4348C15.9716 28.7002 16.3089 28.8331 16.6462 28.8331C16.984 28.8331 17.3219 28.7002 17.5797 28.4348L20.0522 25.883L22.5269 28.4348C23.0414 28.9662 23.8763 28.9662 24.3914 28.4348C24.907 27.9034 24.907 27.0413 24.3914 26.5105L21.8744 23.9136Z" fill="#E2D7B9"/>
<path d="M24.5436 15.4786C24.5436 18.0394 22.5248 20.1224 20.0412 20.1224C17.5582 20.1224 15.5388 18.0394 15.5388 15.4786C15.5388 12.9171 17.5582 10.8335 20.0412 10.8335C22.5248 10.8335 24.5436 12.9171 24.5436 15.4786ZM21.9055 15.4786C21.9055 14.4181 21.0692 13.5557 20.0412 13.5557C19.014 13.5557 18.177 14.4181 18.177 15.4786C18.177 16.5383 19.014 17.4013 20.0412 17.4013C21.0692 17.4013 21.9055 16.5383 21.9055 15.4786Z" stroke="#E2D7B9"/>
<path d="M21.8744 23.9136C22.7909 23.6982 23.6748 23.3241 24.4889 22.7967C25.105 22.3959 25.2906 21.5557 24.9024 20.9201C24.5145 20.2831 23.7006 20.0914 23.0834 20.4921C21.2392 21.6886 18.8647 21.6883 17.0215 20.4921C16.4043 20.0914 15.5902 20.2831 15.2031 20.9201C14.8149 21.5563 14.9999 22.3959 15.616 22.7967C16.4302 23.3236 17.314 23.6982 18.2305 23.9136L15.7133 26.5105C15.1987 27.0419 15.1987 27.9034 15.7138 28.4348C15.9716 28.7002 16.3089 28.8331 16.6462 28.8331C16.984 28.8331 17.3219 28.7002 17.5797 28.4348L20.0522 25.883L22.5269 28.4348C23.0414 28.9662 23.8763 28.9662 24.3914 28.4348C24.907 27.9034 24.907 27.0413 24.3914 26.5105L21.8744 23.9136Z" stroke="#E2D7B9"/>
<circle cx="20" cy="20" r="19" stroke="#E2D7B9" stroke-width="2"/>
</svg>
