<svg width="30" height="30" viewBox="0 0 30 30" fill="none" xmlns="http://www.w3.org/2000/svg">
<path d="M18.4077 11.6089C18.4077 13.5294 16.8936 15.0917 15.0309 15.0917C13.1686 15.0917 11.6541 13.5294 11.6541 11.6089C11.6541 9.68767 13.1686 8.125 15.0309 8.125C16.8936 8.125 18.4077 9.68767 18.4077 11.6089ZM16.4291 11.6089C16.4291 10.8134 15.8019 10.1667 15.0309 10.1667C14.2605 10.1667 13.6328 10.8134 13.6328 11.6089C13.6328 12.4036 14.2605 13.0508 15.0309 13.0508C15.8019 13.0508 16.4291 12.4036 16.4291 11.6089Z" fill="#3A4047"/>
<path d="M16.4058 17.9351C17.0932 17.7735 17.7561 17.493 18.3667 17.0974C18.8287 16.7968 18.968 16.1667 18.6768 15.69C18.3859 15.2122 17.7755 15.0684 17.3126 15.369C15.9294 16.2663 14.1485 16.2661 12.7661 15.369C12.3032 15.0684 11.6926 15.2122 11.4023 15.69C11.1111 16.1671 11.2499 16.7968 11.712 17.0974C12.3226 17.4926 12.9855 17.7735 13.6729 17.9351L11.785 19.8827C11.3991 20.2813 11.3991 20.9274 11.7854 21.326C11.9787 21.525 12.2317 21.6247 12.4847 21.6247C12.738 21.6247 12.9914 21.525 13.1848 21.326L15.0391 19.4121L16.8952 21.326C17.2811 21.7245 17.9072 21.7245 18.2935 21.326C18.6802 20.9274 18.6802 20.2809 18.2935 19.8827L16.4058 17.9351Z" fill="#3A4047"/>
<circle cx="15" cy="15" r="14.5" stroke="#3A4047"/>
</svg>
