<svg width="40" height="40" viewBox="0 0 40 40" fill="none" xmlns="http://www.w3.org/2000/svg">
<path d="M28.7625 15.0156C27.6211 15.0156 26.568 14.6375 25.7223 13.9996C24.7524 13.2684 24.0555 12.1957 23.8094 10.9594C23.7485 10.6539 23.7157 10.3387 23.7125 10.0156H20.452V18.925L20.4481 23.8051C20.4481 25.1098 19.5985 26.216 18.4207 26.6051C18.0789 26.718 17.7098 26.7715 17.3254 26.7504C16.8348 26.7234 16.375 26.5754 15.9754 26.3363C15.125 25.8277 14.5485 24.9051 14.5328 23.8496C14.5082 22.2 15.8418 20.8551 17.4903 20.8551C17.8157 20.8551 18.1282 20.9082 18.4207 21.0047V18.5695V17.6941C18.1121 17.6484 17.7981 17.6246 17.4805 17.6246C15.6762 17.6246 13.9887 18.3746 12.7825 19.7258C11.8707 20.7469 11.3239 22.0496 11.2395 23.4156C11.1289 25.2102 11.7856 26.916 13.059 28.1746C13.2461 28.3594 13.4426 28.5309 13.6481 28.6891C14.7399 29.5293 16.0746 29.9848 17.4805 29.9848C17.7981 29.9848 18.1121 29.9613 18.4207 29.9156C19.734 29.7211 20.9457 29.1199 21.902 28.1746C23.077 27.0133 23.7262 25.4715 23.7332 23.8305L23.7164 16.543C24.277 16.9754 24.8899 17.3332 25.5477 17.6109C26.5707 18.0426 27.6555 18.2613 28.7719 18.2609V15.8934V15.0148C28.7727 15.0156 28.7633 15.0156 28.7625 15.0156Z" fill="#E2D7B9"/>
<circle cx="20" cy="20" r="19" stroke="#E2D7B9" stroke-width="2"/>
</svg>
