<svg width="48" height="48" viewBox="0 0 48 48" fill="none" xmlns="http://www.w3.org/2000/svg">
<path d="M34.515 18.0186C33.1453 18.0186 31.8815 17.5648 30.8667 16.7993C29.7028 15.9218 28.8665 14.6346 28.5712 13.1511C28.4981 12.7845 28.4587 12.4062 28.455 12.0186H24.5423V22.7098L24.5376 28.5659C24.5376 30.1315 23.5181 31.459 22.1048 31.9259C21.6946 32.0614 21.2517 32.1256 20.7904 32.1003C20.2017 32.0679 19.65 31.8903 19.1704 31.6034C18.15 30.9931 17.4581 29.8859 17.4393 28.6193C17.4098 26.6398 19.0101 25.0259 20.9882 25.0259C21.3787 25.0259 21.7537 25.0896 22.1048 25.2054V22.2832V21.2328C21.7345 21.1779 21.3576 21.1493 20.9765 21.1493C18.8114 21.1493 16.7864 22.0493 15.3389 23.6707C14.2448 24.8961 13.5886 26.4593 13.4873 28.0986C13.3546 30.252 14.1426 32.299 15.6707 33.8093C15.8953 34.0311 16.1311 34.2368 16.3776 34.4267C17.6878 35.435 19.2895 35.9815 20.9765 35.9815C21.3576 35.9815 21.7345 35.9534 22.1048 35.8986C23.6807 35.6651 25.1348 34.9437 26.2823 33.8093C27.6923 32.4157 28.4714 30.5656 28.4798 28.5964L28.4596 19.8514C29.1323 20.3703 29.8678 20.7996 30.6571 21.1329C31.8848 21.6509 33.1865 21.9134 34.5262 21.9129V19.0718V18.0176C34.5271 18.0186 34.5159 18.0186 34.515 18.0186Z" fill="#3A4047"/>
<circle cx="24" cy="24" r="23.5" stroke="#3A4047"/>
</svg>
