<svg width="30" height="30" viewBox="0 0 30 30" fill="none" xmlns="http://www.w3.org/2000/svg">
<circle cx="15" cy="15" r="14.5" stroke="#3A4047"/>
<g clip-path="url(#clip0)">
<path d="M22.5 10.3491C21.9422 10.5938 21.3478 10.7559 20.7281 10.8347C21.3656 10.4541 21.8522 9.85594 22.0809 9.135C21.4866 9.48937 20.8303 9.73969 20.1309 9.87938C19.5666 9.27844 18.7622 8.90625 17.8847 8.90625C16.1822 8.90625 14.8116 10.2881 14.8116 11.9822C14.8116 12.2259 14.8322 12.4603 14.8828 12.6834C12.3263 12.5587 10.0641 11.3334 8.54437 9.46688C8.27906 9.92719 8.12344 10.4541 8.12344 11.0213C8.12344 12.0863 8.67188 13.0303 9.48937 13.5769C8.99531 13.5675 8.51063 13.4241 8.1 13.1981C8.1 13.2075 8.1 13.2197 8.1 13.2319C8.1 14.7262 9.16594 15.9675 10.5637 16.2534C10.3134 16.3219 10.0406 16.3547 9.7575 16.3547C9.56063 16.3547 9.36187 16.3434 9.17531 16.3022C9.57375 17.52 10.7044 18.4153 12.0488 18.4444C11.0025 19.2628 9.67406 19.7559 8.23594 19.7559C7.98375 19.7559 7.74187 19.7447 7.5 19.7137C8.86219 20.5922 10.4766 21.0938 12.2175 21.0938C17.8763 21.0938 20.97 16.4062 20.97 12.3431C20.97 12.2072 20.9653 12.0759 20.9587 11.9456C21.5691 11.5125 22.0819 10.9716 22.5 10.3491Z" fill="#3A4047"/>
</g>
<defs>
<clipPath id="clip0">
<rect width="15" height="15" fill="white" transform="translate(7.5 7.5)"/>
</clipPath>
</defs>
</svg>
