<svg width="40" height="40" viewBox="0 0 40 40" fill="none" xmlns="http://www.w3.org/2000/svg">
<path d="M25.1371 22.4433L25.0965 22.3861C24.6351 21.7378 24.456 20.9162 24.7674 20.0828C24.872 19.7981 25.0613 19.4961 25.1782 19.3119C25.3296 19.0734 25.5204 18.7905 25.7194 18.4977C25.7691 18.4247 25.8196 18.3505 25.8708 18.2754C26.2412 17.7316 26.6452 17.1385 27.002 16.5654C27.0666 16.4616 27.1275 16.3619 27.1845 16.2665C26.8864 16.2658 26.589 16.2645 26.2999 16.2633C26.1666 16.2627 26.035 16.2621 25.9059 16.2616C25.2861 17.7283 24.4257 19.6275 23.1633 20.9459L23.1044 21.0074L23.039 21.062C22.8319 21.2349 22.5067 21.4482 22.0557 21.5088C21.6698 21.5606 21.3469 21.4727 21.237 21.4428C21.234 21.442 21.2311 21.4412 21.2284 21.4405L20.8015 21.3247L20.5025 20.9987C19.9403 20.3857 19.805 19.5884 19.7565 19.0795C19.7028 18.5156 19.7271 17.9001 19.7543 17.3794C19.761 17.2511 19.7679 17.1281 19.7745 17.0097C19.7972 16.6058 19.8168 16.2546 19.8161 15.9264C19.816 15.8502 19.8147 15.7804 19.8123 15.7165C19.5617 15.6957 19.2558 15.6877 18.9287 15.6987C18.9688 15.9179 18.9976 16.1362 19.0193 16.3295C19.0779 16.8524 19.1112 17.4658 19.1006 18.0604C19.0905 18.6325 19.0387 19.287 18.8824 19.8443C18.8064 20.1152 18.6743 20.4811 18.4209 20.8095C18.1438 21.1686 17.6402 21.5702 16.9152 21.5702C16.2939 21.5702 15.8333 21.2679 15.5868 21.0701C15.3172 20.8538 15.0933 20.592 14.9158 20.3561C14.5572 19.8795 14.2218 19.2822 13.9364 18.7185C13.4804 17.818 13.0725 16.8429 12.8193 16.2147L12.0096 16.2211C12.6916 17.8453 13.5995 19.7461 14.7265 21.3478C16.2299 23.4846 17.7975 24.6366 19.3808 24.5778L19.4091 24.5767H19.4375C19.5444 24.5767 19.6465 24.5819 19.7294 24.5872C19.7668 24.5895 19.8061 24.5923 19.8441 24.5951C19.8451 24.5625 19.8463 24.5272 19.8478 24.4886C19.8655 24.0276 19.9179 22.7443 21.1662 22.0627C22.2556 21.4651 23.207 22.109 23.4933 22.3348L25.1371 22.4433ZM25.1371 22.4433L25.1829 22.4965M25.1371 22.4433L25.1829 22.4965M25.1829 22.4965C25.469 22.8291 25.7806 23.162 26.0692 23.4703L26.0722 23.4736C26.37 23.7917 26.6461 24.0868 26.8992 24.3791C26.9653 24.4554 27.0274 24.5288 27.0857 24.5996L25.8126 24.6212L25.7058 24.623M25.1829 22.4965L25.7058 24.623M25.7058 24.623C25.5379 24.5474 25.3375 24.3812 25.0015 23.9757C24.9474 23.9103 24.8849 23.8317 24.8149 23.7437C24.5004 23.3478 24.0349 22.7619 23.4933 22.3349L25.7058 24.623ZM19.8165 25.109C19.8165 25.109 19.8167 25.1079 19.8172 25.1059C19.8168 25.108 19.8165 25.109 19.8165 25.109ZM27.7954 15.0215C27.7962 15.021 27.7949 15.0314 27.789 15.0543C27.7916 15.0335 27.7946 15.022 27.7954 15.0215ZM28.4086 24.5772C28.4249 24.5754 28.4271 24.5772 28.4111 24.5772H28.4086ZM25.775 24.6499C25.7769 24.6504 25.7779 24.6507 25.7779 24.6507C25.7779 24.6508 25.777 24.6505 25.775 24.6499Z" fill="#E2D7B9" stroke="#E2D7B9" stroke-width="3.05452"/>
<circle cx="20" cy="20" r="19" stroke="#E2D7B9" stroke-width="2"/>
</svg>
