<svg width="30" height="30" viewBox="0 0 30 30" fill="none" xmlns="http://www.w3.org/2000/svg">
<path d="M19.7556 16.1256C19.5996 15.9063 19.5646 15.6844 19.6499 15.4596C19.8626 14.8597 22.9609 11.0496 21.6702 11.0496C20.7833 11.0618 19.7167 11.0496 18.8664 11.0496C18.7085 11.0894 18.6064 11.1752 18.5425 11.3497C18.0453 12.5371 17.4368 13.9861 16.5451 14.9174C16.4278 15.0153 16.3546 15.0111 16.221 14.9749C15.5955 14.2929 16.2625 11.9563 15.8821 11.033C15.8071 10.8523 15.643 10.7707 15.4751 10.7247C14.6259 10.5151 12.6864 10.6399 12.3699 11.0618C12.2795 11.1824 12.2668 11.2482 12.3322 11.2591C12.6337 11.3083 12.8471 11.4262 12.9727 11.6125C13.2097 12.153 13.3844 15.0323 12.6864 15.0323C11.9884 15.0323 10.8628 12.2066 10.5536 11.4233C10.4713 11.1874 10.2618 11.0522 10.0411 11.0123L7.976 11.0286C7.61301 11.0286 7.41015 11.2141 7.5388 11.5877C8.61438 14.3527 10.9681 19.7123 14.5781 19.5781C14.9398 19.5781 15.5619 19.7219 15.8443 19.3972C16.2325 18.8639 15.7591 17.9141 16.4247 17.5519C16.5925 17.4594 16.7665 17.537 16.9107 17.6507C17.651 18.2345 18.0441 19.2592 18.957 19.5702C19.1175 19.625 19.2582 19.6387 19.379 19.6113L21.3083 19.5785C21.6665 19.5785 22.0193 19.4134 21.9452 18.9699C21.6639 18.0189 20.5431 17.0412 19.7556 16.1256Z" fill="#3A4047"/>
<circle cx="15" cy="15" r="14.5" stroke="#3A4047"/>
</svg>
