<svg width="40" height="40" viewBox="0 0 40 40" fill="none" xmlns="http://www.w3.org/2000/svg">
<path fill-rule="evenodd" clip-rule="evenodd" d="M13.8761 10.0549C12.8004 10.213 11.9783 10.6076 11.2951 11.2937C10.729 11.8623 10.3046 12.3862 10.075 13.2277L10.0315 13.7648L10.0158 16.8356L10 19.9065L10.6213 19.8815C13.6275 19.7604 14.6925 19.654 15.745 19.3695C17.6456 18.8558 18.9267 17.5339 19.4111 15.5863C19.6748 14.5261 19.7571 13.6458 19.8794 10.5771L19.9022 10.005L17.0204 10.0107C15.4354 10.0138 14.0205 10.0337 13.8761 10.0549ZM20.113 10.6914C20.129 11.0717 20.1532 11.635 20.1668 11.9433C20.3106 15.1904 20.6766 16.6178 21.6621 17.775C22.8921 19.2192 24.4448 19.7002 28.3142 19.8361C28.7123 19.8501 29.2546 19.873 29.5191 19.8869L30 19.9124L29.9831 16.8619C29.9646 13.5132 29.9668 13.5422 29.6654 12.7606C29.4372 12.169 29.2133 11.8369 28.6885 11.3121C28.1636 10.7873 27.8316 10.5634 27.2399 10.3352C26.4608 10.0347 26.4865 10.0368 23.1365 10.0175L20.0841 10L20.113 10.6914ZM10.0051 22.9489C10.0054 26.3713 10.0264 26.5921 10.4383 27.4836C10.676 27.9979 10.923 28.3347 11.3896 28.7807C11.842 29.213 12.2183 29.4556 12.7607 29.6648C13.5396 29.9652 13.5147 29.9632 16.8584 29.9824L19.9052 30L19.8812 29.402C19.7493 26.1157 19.627 25.0139 19.2748 23.9387C18.7133 22.2246 17.4814 21.0772 15.6978 20.6071C14.6493 20.3308 13.544 20.2199 10.7639 20.1124L10.005 20.083L10.0051 22.9489ZM28.9447 20.1246C24.8123 20.2613 23.2857 20.6393 22.0205 21.8391C20.9266 22.8764 20.4599 24.1193 20.2608 26.5249C20.1946 27.324 20.1777 27.6364 20.1121 29.2619L20.0824 30L23.1357 29.9825C26.4866 29.9632 26.4608 29.9653 27.2399 29.6648C27.8316 29.4366 28.1636 29.2127 28.6885 28.6879C29.4018 27.9746 29.7343 27.3371 29.9068 26.352C29.9838 25.9121 29.9928 25.564 29.9942 22.9775L29.9956 20.0934L29.657 20.1028C29.4708 20.108 29.1502 20.1178 28.9447 20.1246Z" fill="#E2D7B9"/>
<circle cx="20" cy="20" r="19" stroke="#E2D7B9" stroke-width="2"/>
</svg>
