<svg width="30" height="30" viewBox="0 0 30 30" fill="none" xmlns="http://www.w3.org/2000/svg">
<path fill-rule="evenodd" clip-rule="evenodd" d="M10.4071 7.54119C9.60031 7.65977 8.98375 7.9557 8.47136 8.47031C8.04675 8.89672 7.72847 9.28964 7.55626 9.92076L7.52365 10.3236L7.51184 12.6267L7.5 14.9299L7.96601 14.9111C10.2206 14.8203 11.0194 14.7405 11.8087 14.5271C13.2342 14.1418 14.195 13.1504 14.5583 11.6897C14.7561 10.8946 14.8178 10.2344 14.9096 7.93286L14.9267 7.50375L12.7653 7.50802C11.5765 7.51037 10.5153 7.52529 10.4071 7.54119ZM15.0848 8.01857C15.0968 8.30375 15.1149 8.72627 15.1251 8.95746C15.233 11.3928 15.5075 12.4634 16.2466 13.3312C17.1691 14.4144 18.3336 14.7752 21.2356 14.8771C21.5342 14.8876 21.9409 14.9047 22.1393 14.9152L22.5 14.9343L22.4873 12.6465C22.4734 10.1349 22.4751 10.1566 22.249 9.57047C22.0779 9.12672 21.91 8.8777 21.5163 8.48408C21.1227 8.09045 20.8737 7.92252 20.4299 7.7514C19.8456 7.52606 19.8649 7.52757 17.3524 7.51314L15.0631 7.5L15.0848 8.01857ZM7.50385 17.2117C7.50403 19.7785 7.51983 19.9441 7.82876 20.6127C8.00699 20.9984 8.19223 21.251 8.54222 21.5855C8.88149 21.9097 9.16373 22.0917 9.5705 22.2486C10.1547 22.4739 10.136 22.4724 12.6438 22.4868L14.9289 22.5L14.9109 22.0515C14.812 19.5868 14.7202 18.7604 14.4561 17.954C14.035 16.6685 13.111 15.8079 11.7734 15.4553C10.987 15.2481 10.158 15.165 8.07296 15.0843L7.50371 15.0623L7.50385 17.2117ZM21.7085 15.0934C18.6092 15.196 17.4643 15.4794 16.5154 16.3793C15.695 17.1573 15.3449 18.0895 15.1956 19.8937C15.146 20.493 15.1333 20.7273 15.0841 21.9464L15.0618 22.5L17.3518 22.4869C19.8649 22.4724 19.8456 22.4739 20.4299 22.2486C20.8737 22.0775 21.1227 21.9095 21.5163 21.5159C22.0513 20.9809 22.3007 20.5028 22.4301 19.764C22.4878 19.4341 22.4946 19.173 22.4956 17.2331L22.4967 15.0701L22.2427 15.0771C22.1031 15.081 21.8627 15.0883 21.7085 15.0934Z" fill="#3A4047"/>
<circle cx="15" cy="15" r="14.5" stroke="#3A4047"/>
</svg>
