<svg width="30" height="30" viewBox="0 0 30 30" fill="none" xmlns="http://www.w3.org/2000/svg">
<path fill-rule="evenodd" clip-rule="evenodd" d="M10.1086 10.1587C9.11265 10.2084 8.3126 10.9934 8.24796 11.9952C8.18603 12.9549 8.125 14.1359 8.125 15.0625C8.125 15.9891 8.18603 17.1701 8.24796 18.1298C8.3126 19.1316 9.11265 19.9166 10.1086 19.9663C11.5509 20.0382 13.6123 20.125 15.1654 20.125C16.7186 20.125 18.78 20.0382 20.2223 19.9663C21.2183 19.9166 22.0183 19.1316 22.0829 18.1298C22.1449 17.1701 22.2059 15.9891 22.2059 15.0625C22.2059 14.1359 22.1449 12.9549 22.0829 11.9952C22.0183 10.9934 21.2183 10.2084 20.2223 10.1587C18.78 10.0868 16.7186 10 15.1654 10C13.6123 10 11.5509 10.0868 10.1086 10.1587ZM17.6795 15.0627L13.6563 17.0877V13.0377L17.6795 15.0627Z" fill="#3A4047"/>
<circle cx="15" cy="15" r="14.5" stroke="#3A4047"/>
</svg>
