<svg width="40" height="40" viewBox="0 0 40 40" fill="none" xmlns="http://www.w3.org/2000/svg">
<path fill-rule="evenodd" clip-rule="evenodd" d="M13.4782 13.5451C12.1502 13.6113 11.0834 14.6581 10.9973 15.9937C10.9147 17.2734 10.8333 18.848 10.8333 20.0835C10.8333 21.319 10.9147 22.8936 10.9973 24.1732C11.0834 25.5089 12.1502 26.5557 13.4782 26.6219C15.4011 26.7178 18.1497 26.8335 20.2206 26.8335C22.2915 26.8335 25.04 26.7178 26.963 26.6219C28.291 26.5557 29.3577 25.5089 29.4439 24.1732C29.5265 22.8936 29.6078 21.319 29.6078 20.0835C29.6078 18.848 29.5265 17.2734 29.4439 15.9937C29.3577 14.6581 28.291 13.6113 26.963 13.5451C25.04 13.4492 22.2915 13.3335 20.2206 13.3335C18.1497 13.3335 15.4011 13.4492 13.4782 13.5451ZM25 20L16.6667 24.1667V15.8333L25 20Z" fill="#E2D7B9"/>
<path d="M10.9973 15.9937L11.7956 16.0453L10.9973 15.9937ZM13.4782 13.5451L13.518 14.3441L13.4782 13.5451ZM10.9973 24.1732L10.1989 24.2248L10.9973 24.1732ZM13.4782 26.6219L13.518 25.8229H13.518L13.4782 26.6219ZM26.963 26.6219L26.9232 25.8229H26.9232L26.963 26.6219ZM29.4439 24.1732L30.2422 24.2248V24.2248L29.4439 24.1732ZM29.4439 15.9937L30.2422 15.9422V15.9422L29.4439 15.9937ZM26.963 13.5451L26.9232 14.3441L26.963 13.5451ZM16.6667 24.1667H15.8667V25.4611L17.0244 24.8822L16.6667 24.1667ZM25 20L25.3578 20.7155L26.7889 20L25.3578 19.2845L25 20ZM16.6667 15.8333L17.0244 15.1178L15.8667 14.5389V15.8333H16.6667ZM11.7956 16.0453C11.8556 15.1154 12.5959 14.3901 13.518 14.3441L13.4383 12.7461C11.7045 12.8325 10.3113 14.2007 10.1989 15.9422L11.7956 16.0453ZM11.6333 20.0835C11.6333 18.875 11.7132 17.3216 11.7956 16.0453L10.1989 15.9422C10.1161 17.2252 10.0333 18.821 10.0333 20.0835H11.6333ZM11.7956 24.1217C11.7132 22.8454 11.6333 21.292 11.6333 20.0835H10.0333C10.0333 21.3459 10.1161 22.9417 10.1989 24.2248L11.7956 24.1217ZM13.518 25.8229C12.5959 25.7769 11.8556 25.0516 11.7956 24.1217L10.1989 24.2248C10.3113 25.9663 11.7045 27.3345 13.4383 27.4209L13.518 25.8229ZM20.2206 26.0335C18.1712 26.0335 15.4399 25.9188 13.518 25.8229L13.4383 27.4209C15.3624 27.5169 18.1281 27.6335 20.2206 27.6335V26.0335ZM26.9232 25.8229C25.0013 25.9188 22.27 26.0335 20.2206 26.0335V27.6335C22.313 27.6335 25.0787 27.5169 27.0029 27.4209L26.9232 25.8229ZM28.6456 24.1217C28.5856 25.0516 27.8453 25.7769 26.9232 25.8229L27.0029 27.4209C28.7367 27.3345 30.1299 25.9663 30.2422 24.2248L28.6456 24.1217ZM28.8078 20.0835C28.8078 21.292 28.7279 22.8454 28.6456 24.1217L30.2422 24.2248C30.325 22.9417 30.4078 21.3459 30.4078 20.0835H28.8078ZM28.6456 16.0453C28.7279 17.3216 28.8078 18.875 28.8078 20.0835H30.4078C30.4078 18.821 30.325 17.2252 30.2422 15.9422L28.6456 16.0453ZM26.9232 14.3441C27.8453 14.3901 28.5856 15.1154 28.6456 16.0453L30.2422 15.9422C30.1299 14.2007 28.7367 12.8325 27.0029 12.7461L26.9232 14.3441ZM20.2206 14.1335C22.27 14.1335 25.0013 14.2482 26.9232 14.3441L27.0029 12.7461C25.0787 12.6501 22.313 12.5335 20.2206 12.5335V14.1335ZM13.518 14.3441C15.4398 14.2482 18.1712 14.1335 20.2206 14.1335V12.5335C18.1281 12.5335 15.3624 12.6501 13.4383 12.7461L13.518 14.3441ZM17.0244 24.8822L25.3578 20.7155L24.6422 19.2845L16.3089 23.4511L17.0244 24.8822ZM15.8667 15.8333V24.1667H17.4667V15.8333H15.8667ZM25.3578 19.2845L17.0244 15.1178L16.3089 16.5489L24.6422 20.7155L25.3578 19.2845Z" fill="#E2D7B9"/>
<circle cx="20" cy="20" r="19" stroke="#E2D7B9" stroke-width="2"/>
</svg>
