<svg width="22" height="22" viewBox="0 0 22 22" fill="none" xmlns="http://www.w3.org/2000/svg">
<path d="M18.6261 4.86C18.6261 5.7547 17.8903 6.48 16.9826 6.48C16.0749 6.48 15.3391 5.7547 15.3391 4.86C15.3391 3.9653 16.0749 3.24 16.9826 3.24C17.8903 3.24 18.6261 3.9653 18.6261 4.86Z" fill="#3A4047"/>
<path fill-rule="evenodd" clip-rule="evenodd" d="M10.9565 16.2C13.9821 16.2 16.4348 13.7823 16.4348 10.8C16.4348 7.81766 13.9821 5.4 10.9565 5.4C7.93096 5.4 5.47826 7.81766 5.47826 10.8C5.47826 13.7823 7.93096 16.2 10.9565 16.2ZM10.9565 14.04C12.7719 14.04 14.2435 12.5894 14.2435 10.8C14.2435 9.0106 12.7719 7.56 10.9565 7.56C9.14119 7.56 7.66957 9.0106 7.66957 10.8C7.66957 12.5894 9.14119 14.04 10.9565 14.04Z" fill="#3A4047"/>
<path fill-rule="evenodd" clip-rule="evenodd" d="M0 10.368C0 6.73886 0 4.92429 0.716514 3.53814C1.34678 2.31885 2.35246 1.32754 3.58942 0.706278C4.99566 0 6.83653 0 10.5183 0H11.3948C15.0765 0 16.9174 0 18.3236 0.706278C19.5606 1.32754 20.5663 2.31885 21.1965 3.53814C21.913 4.92429 21.913 6.73886 21.913 10.368V11.232C21.913 14.8611 21.913 16.6757 21.1965 18.0619C20.5663 19.2811 19.5606 20.2725 18.3236 20.8937C16.9174 21.6 15.0765 21.6 11.3948 21.6H10.5183C6.83653 21.6 4.99566 21.6 3.58942 20.8937C2.35246 20.2725 1.34678 19.2811 0.716514 18.0619C0 16.6757 0 14.8611 0 11.232V10.368ZM10.5183 2.16H11.3948C13.2718 2.16 14.5478 2.16168 15.5341 2.24111C16.4948 2.31848 16.9861 2.45872 17.3288 2.63085C18.1534 3.04502 18.8239 3.7059 19.2441 4.51876C19.4187 4.85658 19.561 5.34086 19.6395 6.28784C19.72 7.26004 19.7217 8.51779 19.7217 10.368V11.232C19.7217 13.0822 19.72 14.34 19.6395 15.3122C19.561 16.2591 19.4187 16.7434 19.2441 17.0812C18.8239 17.8941 18.1534 18.555 17.3288 18.9691C16.9861 19.1413 16.4948 19.2815 15.5341 19.3589C14.5478 19.4383 13.2718 19.44 11.3948 19.44H10.5183C8.64124 19.44 7.36525 19.4383 6.37897 19.3589C5.41827 19.2815 4.92697 19.1413 4.58425 18.9691C3.75961 18.555 3.08916 17.8941 2.66898 17.0812C2.49436 16.7434 2.35208 16.2591 2.27359 15.3122C2.19301 14.34 2.1913 13.0822 2.1913 11.232V10.368C2.1913 8.51779 2.19301 7.26004 2.27359 6.28784C2.35208 5.34086 2.49436 4.85658 2.66898 4.51876C3.08916 3.7059 3.75961 3.04502 4.58425 2.63085C4.92697 2.45872 5.41827 2.31848 6.37897 2.24111C7.36525 2.16168 8.64124 2.16 10.5183 2.16Z" fill="#3A4047"/>
</svg>
