<svg width="13" height="22" viewBox="0 0 13 22" fill="none" xmlns="http://www.w3.org/2000/svg">
<path d="M11.4524 5.57418C11.4524 8.64708 9.02975 11.1467 6.04947 11.1467C3.06984 11.1467 0.646561 8.64708 0.646561 5.57418C0.646561 2.50028 3.06984 0 6.04947 0C9.02975 0 11.4524 2.50028 11.4524 5.57418ZM8.28655 5.57416C8.28655 4.30151 7.2831 3.26665 6.04948 3.26665C4.81683 3.26665 3.81241 4.30151 3.81241 5.57416C3.81241 6.84581 4.81683 7.88134 6.04948 7.88134C7.2831 7.88134 8.28655 6.84581 8.28655 5.57416Z" fill="#3A4047"/>
<path d="M8.24927 15.6961C9.34906 15.4377 10.4097 14.9888 11.3867 14.3558C12.126 13.8749 12.3487 12.8667 11.8829 12.104C11.4174 11.3396 10.4408 11.1095 9.70013 11.5904C7.48699 13.0261 4.63763 13.0258 2.42578 11.5904C1.68516 11.1095 0.708216 11.3396 0.243668 12.104C-0.222172 12.8674 -8.14583e-05 13.8749 0.73925 14.3558C1.71619 14.9881 2.77686 15.4377 3.87664 15.6961L0.855953 18.8124C0.238496 19.4501 0.238496 20.4839 0.8566 21.1216C1.16597 21.4401 1.57072 21.5995 1.97546 21.5995C2.38085 21.5995 2.78623 21.4401 3.09561 21.1216L6.06263 18.0593L9.03225 21.1216C9.6497 21.7592 10.6515 21.7592 11.2696 21.1216C11.8884 20.4839 11.8884 19.4494 11.2696 18.8124L8.24927 15.6961Z" fill="#3A4047"/>
</svg>
