<svg width="24" height="15" viewBox="0 0 24 15" fill="none" xmlns="http://www.w3.org/2000/svg">
<path d="M19.609 8.80091C19.3594 8.45015 19.3034 8.09509 19.4399 7.73534C19.7802 6.77553 24.7374 0.67935 22.6723 0.67935C21.2533 0.698883 19.5467 0.67935 18.1862 0.67935C17.9337 0.743018 17.7703 0.880286 17.668 1.15957C16.8725 3.05936 15.899 5.37776 14.4722 6.86777C14.2845 7.02451 14.1674 7.01783 13.9536 6.95987C12.9528 5.86865 14.0199 2.1301 13.4113 0.65286C13.2914 0.363702 13.0288 0.233099 12.7602 0.159555C11.4014 -0.17581 8.29821 0.02381 7.79188 0.698883C7.64714 0.891865 7.62695 0.997179 7.73144 1.0145C8.21387 1.09332 8.55539 1.28188 8.75639 1.58C9.1356 2.44484 9.41505 7.05168 8.29821 7.05168C7.18137 7.05168 5.38044 2.53056 4.88569 1.27723C4.75403 0.899856 4.41886 0.683507 4.06571 0.619644L0.761604 0.645812C0.180822 0.645812 -0.143766 0.942517 0.0620865 1.54028C1.78301 5.96435 5.54897 14.5397 11.325 14.325C11.9036 14.325 12.899 14.555 13.3509 14.0355C13.972 13.1823 13.2146 11.6626 14.2795 11.0831C14.548 10.9351 14.8264 11.0591 15.0571 11.2411C16.2416 12.1751 16.8705 13.8147 18.3312 14.3124C18.5881 14.4 18.8131 14.4219 19.0063 14.3781L22.0933 14.3256C22.6664 14.3256 23.231 14.0615 23.1123 13.3519C22.6623 11.8302 20.869 10.266 19.609 8.80091Z" fill="#3A4047"/>
</svg>
