<svg width="21" height="14" viewBox="0 0 21 14" fill="none" xmlns="http://www.w3.org/2000/svg">
<path d="M0 6.77452C0.0133 6.92626 0.07546 7.12884 0.175 7.24247L5.425 13.3037C5.654 13.6204 6.12619 13.6193 6.41679 13.3603C6.7074 13.1012 6.72955 12.641 6.475 12.3677L2.24217 7.4876L20.3 7.4876C20.6866 7.4876 21 7.16835 21 6.77452C21 6.38068 20.6866 6.06144 20.3 6.06144L2.24217 6.06144L6.475 1.18129C6.75276 0.908041 6.67464 0.439401 6.38403 0.180375C6.09343 -0.0786516 5.654 -0.0601786 5.425 0.245376L0.175 6.30656C0.034685 6.4614 0.00791 6.62944 0 6.77452Z" fill="#002366"/>
</svg>
