<svg width="20" height="31" viewBox="0 0 20 31" fill="none" xmlns="http://www.w3.org/2000/svg">
<path d="M9.99953 1.19254e-07C9.77552 0.0196335 9.47647 0.111393 9.30873 0.258333L0.361273 8.00833C-0.106258 8.34639 -0.104719 9.04342 0.277653 9.47241C0.660078 9.9014 1.33944 9.9341 1.74286 9.55833L8.94688 3.30987L8.94688 29.9667C8.94688 30.5373 9.41815 31 9.99953 31C10.5809 31 11.0522 30.5373 11.0522 29.9667L11.0522 3.30987L18.2562 9.55833C18.6596 9.96836 19.3514 9.85304 19.7337 9.42405C20.1161 8.99506 20.0888 8.34639 19.6378 8.00833L10.6903 0.258333C10.4617 0.0512018 10.2137 0.0116768 9.99953 1.19254e-07Z" fill="#E2D7B9"/>
</svg>
