<svg width="31" height="20" viewBox="0 0 31 20" fill="none" xmlns="http://www.w3.org/2000/svg">
<path d="M31 9.99953C30.9804 9.77552 30.8886 9.47647 30.7417 9.30873L22.9917 0.361272C22.6536 -0.106259 21.9566 -0.10472 21.5276 0.277652C21.0986 0.660077 21.0659 1.33944 21.4417 1.74286L27.6901 8.94688L1.03333 8.94688C0.462672 8.94688 -2.8896e-06 9.41815 -2.94043e-06 9.99952C-2.99125e-06 10.5809 0.462672 11.0522 1.03333 11.0522L27.6901 11.0522L21.4417 18.2562C21.0316 18.6596 21.147 19.3514 21.576 19.7337C22.0049 20.1161 22.6536 20.0888 22.9917 19.6378L30.7417 10.6903C30.9488 10.4617 30.9883 10.2137 31 9.99953Z" fill="#3A4047"/>
</svg>
