<svg width="57" height="57" viewBox="0 0 57 57" fill="none" xmlns="http://www.w3.org/2000/svg">
<g opacity="0.5">
<circle cx="28.5" cy="28.4474" r="26.5358" stroke="#3A4047" stroke-width="3"/>
<path d="M37.7845 29.3239L24.8893 21.9066C24.7887 21.8494 24.6743 21.8198 24.5581 21.8207C24.4418 21.8216 24.3279 21.8531 24.2282 21.9118C24.1286 21.9705 24.0467 22.0544 23.9912 22.1547C23.9356 22.2549 23.9084 22.368 23.9124 22.482V37.2528C23.9085 37.3687 23.9367 37.4835 23.994 37.5849C24.0514 37.6863 24.1357 37.7704 24.2381 37.8283H24.8893L37.7845 30.411C37.8787 30.3536 37.9565 30.2736 38.0104 30.1785C38.0644 30.0834 38.0927 29.9763 38.0927 29.8674C38.0927 29.7586 38.0644 29.6515 38.0104 29.5564C37.9565 29.4613 37.8787 29.3813 37.7845 29.3239Z" fill="#3A4047"/>
</g>
</svg>
