<svg width="327" height="216" viewBox="0 0 327 216" fill="none" xmlns="http://www.w3.org/2000/svg">
<!-- <g opacity="0.15"> -->
<path d="M73.6501 0.916504C77.446 1.25643 81.2984 1.5397 85.0942 1.93628C97.5581 3.18266 109.172 6.97848 119.766 13.607C130.077 20.0655 138.519 28.507 144.977 38.8747C150.19 47.2028 153.419 56.2674 155.572 65.8419C157.895 76.153 158.065 86.5773 157.271 96.8883C156.025 113.318 151.153 128.615 140.785 141.928C129.228 156.772 114.271 166.006 96.1418 170.029C88.6068 171.672 80.7885 172.578 73.0836 172.691C49.9688 173.031 26.854 172.805 3.68251 172.805C2.49277 172.805 1.24639 172.635 0.056654 172.578C0 115.414 0 58.2503 0 0.916504C24.5312 0.916504 49.119 0.916504 73.6501 0.916504ZM37.4483 142.495C47.8159 142.495 57.787 142.665 67.8148 142.438C73.0269 142.325 78.2958 142.042 83.4513 141.078C94.7254 139.096 104.413 133.77 112.062 125.159C121.239 114.791 124.412 102.1 125.035 88.7301C125.262 84.3111 124.469 79.7788 123.846 75.3598C122.033 62.556 116.197 51.9617 106.283 43.5203C96.595 35.3055 85.2076 31.5663 72.857 30.9998C62.0927 30.5465 51.3285 30.8864 40.5642 30.8864C39.5445 30.8864 38.5813 30.8864 37.4483 30.8864C37.4483 68.2781 37.4483 105.216 37.4483 142.495Z" fill="#F3F4F5"/>
<path d="M201.745 215.692C216.192 215.579 230.639 215.296 245.029 215.239C250.864 215.239 256.643 215.579 262.478 215.692H270.013C276.868 215.579 283.667 215.182 290.522 215.239C293.468 215.239 295.564 214.106 297.49 212.293C306.498 203.852 314.713 194.73 321.172 184.136C323.041 181.02 324.627 177.734 326.384 174.505C326.1 174.278 325.761 174.108 325.477 173.882C324.571 174.788 323.664 175.638 322.758 176.544C317.772 181.53 313.07 186.799 307.745 191.388C304.175 194.447 299.983 196.94 295.734 198.979C287.406 202.888 278.171 203.002 269.22 203.965C262.761 204.645 256.246 204.758 249.788 204.645C240.496 204.475 231.205 204.022 221.971 203.285C217.948 202.945 213.869 201.982 209.96 200.849C206.674 199.886 205.371 197.62 206.051 194.617C207.864 186.742 209.28 178.697 211.943 171.106C219.478 149.747 227.126 128.389 235.624 107.427C243.442 88.1076 252.224 69.1851 260.835 50.2061C264.744 41.5947 268.993 33.0966 274.942 25.6182C279.134 20.3494 283.78 15.5905 290.295 13.1544C291.712 12.6445 292.448 11.908 292.505 10.7749H265.141C264.914 11.0015 264.744 11.2281 264.631 11.4548C262.931 14.9106 261.288 18.3665 259.815 21.9357C254.547 34.2296 249.278 46.4669 244.066 58.7608C239.533 69.5251 235.001 80.2893 230.525 91.0536C227.013 99.495 223.67 107.993 220.214 116.491C215.059 129.125 209.79 141.646 204.691 154.279C198.969 168.556 193.417 182.89 187.865 197.28C185.599 203.058 183.559 208.894 181.293 215.012C185.202 215.182 188.828 215.466 192.397 215.579H201.745V215.692Z" fill="#F3F4F5"/>
<path d="M204.858 10.8867C205.368 12.0198 205.878 12.9829 206.558 13.7761C212.62 20.3479 213.81 28.3928 212.676 36.6643C211.883 42.6129 210.127 48.505 208.031 54.1137C201.912 70.6567 195.624 87.143 189.052 103.459C184.18 115.527 178.967 127.367 173.585 139.208C166.617 154.618 159.478 169.971 152.113 185.211C149.507 190.593 146.221 195.635 142.992 200.621C139.14 206.626 132.964 210.025 126.619 214.501C136.137 214.501 144.918 214.444 153.643 214.558C155.683 214.558 156.759 213.878 157.439 212.008C158.572 208.949 159.932 205.946 161.235 202.944C165.767 192.179 170.469 181.472 174.832 170.651C180.327 156.997 185.596 143.23 190.865 129.463C197.437 112.241 204.008 94.9612 210.467 77.6817C216.529 61.5354 222.478 45.3323 228.596 29.186C231.146 22.5008 233.582 15.7023 239.191 10.8301H204.858V10.8867Z" fill="#F3F4F5"/>
<!-- </g> -->
</svg>
