<svg width="310" height="195" viewBox="0 0 310 195" fill="none" xmlns="http://www.w3.org/2000/svg">
<path d="M71.3132 0C74.9886 0.32891 78.7188 0.603 82.3942 0.986728C94.4626 2.19272 105.708 5.86552 115.966 12.2792C125.95 18.5284 134.124 26.6964 140.377 36.7281C145.424 44.7863 148.551 53.5571 150.636 62.8213C152.885 72.7983 153.05 82.8848 152.281 92.8616C151.074 108.759 146.357 123.56 136.318 136.442C125.128 150.805 110.645 159.739 93.0912 163.632C85.7953 165.222 78.2251 166.098 70.7647 166.208C48.3833 166.537 26.0019 166.318 3.56566 166.318C2.41367 166.318 1.20684 166.154 0.0548564 166.098C0 110.787 0 55.4758 0 0C23.7528 0 47.5604 0 71.3132 0ZM36.2601 136.99C46.2987 136.99 55.9534 137.155 65.663 136.935C70.7097 136.826 75.8115 136.552 80.8034 135.619C91.7198 133.701 101.1 128.548 108.506 120.216C117.392 110.184 120.464 97.9044 121.068 84.9678C121.287 80.692 120.52 76.3066 119.916 72.0308C118.161 59.6419 112.51 49.391 102.911 41.2231C93.53 33.2745 82.504 29.6565 70.5452 29.1084C60.1225 28.6698 49.6998 28.9986 39.2771 28.9986C38.2897 28.9986 37.3571 28.9986 36.2601 28.9986C36.2601 65.1786 36.2601 100.919 36.2601 136.99Z" fill="#F3F4F5"/>
<path d="M310 156H118V195H310V156Z" fill="white"/>
<path d="M192.492 191C204.142 190.902 215.792 190.654 227.396 190.604C232.102 190.604 236.761 190.902 241.467 191H247.543C253.071 190.902 258.554 190.555 264.081 190.604C266.457 190.604 268.147 189.614 269.7 188.031C276.964 180.658 283.589 172.689 288.797 163.435C290.304 160.713 291.583 157.842 293 155.022C292.771 154.824 292.498 154.675 292.268 154.478C291.538 155.269 290.807 156.012 290.076 156.803C286.055 161.159 282.264 165.761 277.97 169.77C275.091 172.442 271.711 174.62 268.284 176.401C261.569 179.816 254.122 179.915 246.904 180.756C241.695 181.35 236.442 181.449 231.233 181.35C223.741 181.201 216.249 180.806 208.803 180.162C205.558 179.865 202.269 179.024 199.117 178.034C196.467 177.193 195.416 175.214 195.964 172.59C197.427 165.712 198.568 158.684 200.716 152.053C206.792 133.395 212.959 114.738 219.812 96.428C226.116 79.5519 233.198 63.0227 240.142 46.4441C243.295 38.9218 246.72 31.4985 251.518 24.9659C254.898 20.3636 258.645 16.2065 263.899 14.0786C265.041 13.6332 265.634 12.9898 265.681 12H243.614C243.431 12.1979 243.294 12.3959 243.203 12.5939C241.832 15.6127 240.507 18.6314 239.319 21.7492C235.071 32.4882 230.823 43.1778 226.619 53.9169C222.964 63.3197 219.309 72.7225 215.7 82.1254C212.868 89.4991 210.172 96.9223 207.386 104.346C203.229 115.381 198.979 126.319 194.868 137.354C190.254 149.825 185.777 162.347 181.299 174.917C179.472 179.964 177.827 185.062 176 190.406C179.152 190.555 182.077 190.803 184.954 190.902H192.492V191Z" fill="#F3F4F5"/>
<path d="M191.111 12.0494C191.555 13.0395 192 13.8809 192.592 14.574C197.868 20.3158 198.905 27.3447 197.917 34.5717C197.227 39.769 195.699 44.9171 193.873 49.8175C188.547 64.2714 183.073 78.6757 177.352 92.9312C173.11 103.475 168.572 113.82 163.886 124.166C157.821 137.629 151.605 151.044 145.194 164.359C142.926 169.061 140.064 173.467 137.253 177.823C133.9 183.069 128.524 186.04 123 189.95C131.286 189.95 138.93 189.901 146.526 190C148.302 190 149.238 189.405 149.831 187.772C150.817 185.099 152 182.476 153.135 179.853C157.08 170.447 161.174 161.092 164.972 151.638C169.756 139.708 174.342 127.68 178.929 115.651C184.651 100.604 190.371 85.5065 195.995 70.4092C201.271 56.3019 206.451 42.1451 211.776 28.0378C213.997 22.1968 216.117 16.2569 221 12H191.111V12.0494Z" fill="#F3F4F5"/>
</svg>
