<svg width="311" height="206" viewBox="0 0 311 206" fill="none" xmlns="http://www.w3.org/2000/svg">
<g clip-path="url(#clip0)">
<path d="M71.3132 -1C74.9886 -0.67109 78.7188 -0.397 82.3942 -0.0132723C94.4626 1.19272 105.708 4.86552 115.966 11.2792C125.95 17.5284 134.124 25.6964 140.377 35.7281C145.424 43.7863 148.551 52.5571 150.636 61.8213C152.885 71.7983 153.05 81.8848 152.281 91.8616C151.074 107.759 146.357 122.56 136.318 135.442C125.128 149.805 110.645 158.739 93.0912 162.632C85.7953 164.222 78.2251 165.098 70.7647 165.208C48.3833 165.537 26.0019 165.318 3.56566 165.318C2.41367 165.318 1.20684 165.154 0.0548564 165.098C0 109.787 0 54.4758 0 -1C23.7528 -1 47.5604 -1 71.3132 -1ZM36.2601 135.99C46.2987 135.99 55.9534 136.155 65.663 135.935C70.7097 135.826 75.8115 135.552 80.8034 134.619C91.7198 132.701 101.1 127.548 108.506 119.216C117.392 109.184 120.464 96.9044 121.068 83.9678C121.287 79.692 120.52 75.3066 119.916 71.0308C118.161 58.6419 112.51 48.391 102.911 40.2231C93.53 32.2745 82.504 28.6565 70.5452 28.1084C60.1225 27.6698 49.6998 27.9986 39.2771 27.9986C38.2897 27.9986 37.3571 27.9986 36.2601 27.9986C36.2601 64.1786 36.2601 99.9194 36.2601 135.99Z" fill="#F3F4F5"/>
<rect x="119" y="155" width="192" height="51" fill="white"/>
<path d="M193.761 199C206.307 198.896 218.853 198.635 231.35 198.582C236.417 198.582 241.435 198.896 246.503 199H253.046C258.999 198.896 264.904 198.53 270.857 198.582C273.415 198.582 275.235 197.537 276.908 195.865C284.731 188.08 291.865 179.666 297.474 169.895C299.097 167.021 300.474 163.99 302 161.012C301.753 160.803 301.459 160.646 301.212 160.438C300.426 161.273 299.638 162.057 298.851 162.893C294.521 167.492 290.438 172.351 285.814 176.584C282.713 179.405 279.073 181.705 275.383 183.585C268.151 187.191 260.131 187.296 252.358 188.184C246.748 188.811 241.091 188.915 235.482 188.811C227.413 188.654 219.345 188.236 211.326 187.557C207.832 187.243 204.29 186.355 200.895 185.31C198.041 184.422 196.91 182.332 197.5 179.562C199.075 172.299 200.304 164.879 202.617 157.877C209.161 138.177 215.802 118.478 223.182 99.1446C229.971 81.3258 237.598 63.8731 245.076 46.3683C248.471 38.4258 252.16 30.5878 257.327 23.6903C260.967 18.8308 265.002 14.4415 270.66 12.1947C271.89 11.7244 272.529 11.0451 272.579 10H248.815C248.618 10.209 248.471 10.418 248.372 10.6271C246.896 13.8145 245.469 17.0019 244.19 20.2939C239.615 31.6328 235.04 42.9196 230.513 54.2586C226.577 64.1867 222.641 74.1148 218.754 84.043C215.704 91.8287 212.801 99.6666 209.8 107.505C205.323 119.157 200.747 130.706 196.319 142.357C191.35 155.525 186.529 168.746 181.707 182.018C179.739 187.347 177.968 192.73 176 198.373C179.395 198.53 182.544 198.792 185.643 198.896H193.761V199Z" fill="#F3F4F5"/>
<path d="M193.891 10.0522C194.353 11.0979 194.816 11.9866 195.432 12.7186C200.924 18.783 202.003 26.2068 200.975 33.8398C200.257 39.3291 198.666 44.7664 196.766 49.9421C191.222 65.208 185.525 80.4215 179.57 95.4779C175.155 106.614 170.432 117.54 165.555 128.467C159.242 142.687 152.773 156.855 146.1 170.919C143.739 175.885 140.761 180.538 137.835 185.139C134.345 190.68 128.749 193.817 123 197.947C131.624 197.947 139.58 197.895 147.486 198C149.335 198 150.309 197.372 150.926 195.647C151.952 192.824 153.184 190.053 154.365 187.283C158.471 177.349 162.732 167.468 166.685 157.483C171.664 144.883 176.438 132.179 181.212 119.474C187.167 103.582 193.121 87.6361 198.974 71.6906C204.466 56.7908 209.857 41.8386 215.4 26.9388C217.711 20.7697 219.918 14.4961 225 10H193.891V10.0522Z" fill="#F3F4F5"/>
</g>
<defs>
<clipPath id="clip0">
<rect width="311" height="206" fill="white"/>
</clipPath>
</defs>
</svg>
