<svg width="1033" height="274" viewBox="0 0 1033 274" fill="none" xmlns="http://www.w3.org/2000/svg">
<g opacity="0.15">
<path d="M93.0308 0.37793C97.8255 0.807303 102.692 1.16511 107.486 1.66605C123.23 3.24042 137.9 8.03508 151.282 16.4079C164.307 24.5659 174.97 35.2287 183.128 48.3246C189.711 58.8442 193.79 70.2942 196.51 82.3882C199.444 95.4125 199.659 108.58 198.657 121.604C197.082 142.357 190.928 161.679 177.832 178.496C163.233 197.245 144.341 208.91 121.441 213.991C111.923 216.066 102.048 217.211 92.3152 217.354C63.1179 217.784 33.9205 217.498 4.65154 217.498C3.14874 217.498 1.57437 217.283 0.0715622 217.211C0 145.005 0 72.7989 0 0.37793C30.9864 0.37793 62.0444 0.37793 93.0308 0.37793ZM47.3026 179.212C60.3985 179.212 72.9934 179.427 85.6599 179.14C92.2437 178.997 98.8989 178.639 105.411 177.423C119.652 174.918 131.889 168.191 141.55 157.314C153.143 144.218 157.151 128.188 157.938 111.299C158.224 105.717 157.222 99.9925 156.435 94.4106C154.145 78.2376 146.774 64.8555 134.251 54.1927C122.014 43.8162 107.63 39.0931 92.029 38.3774C78.4322 37.805 64.8353 38.2343 51.2385 38.2343C49.9504 38.2343 48.7338 38.2343 47.3026 38.2343C47.3026 85.4654 47.3026 132.124 47.3026 179.212Z" fill="#E2D7B9"/>
<path d="M254.833 271.67C273.081 271.527 291.33 271.169 309.507 271.098C316.878 271.098 324.177 271.527 331.548 271.67H341.066C349.725 271.527 358.312 271.026 366.971 271.098C370.692 271.098 373.34 269.667 375.773 267.377C387.152 256.714 397.528 245.192 405.686 231.81C408.048 227.874 410.051 223.724 412.27 219.645C411.912 219.358 411.483 219.144 411.125 218.857C409.98 220.002 408.835 221.076 407.69 222.221C401.392 228.518 395.453 235.174 388.726 240.97C384.218 244.834 378.922 247.983 373.555 250.559C363.035 255.497 351.37 255.64 340.064 256.857C331.906 257.716 323.676 257.859 315.518 257.716C303.782 257.501 292.045 256.928 280.381 255.998C275.3 255.569 270.147 254.352 265.21 252.921C261.059 251.704 259.413 248.842 260.272 245.049C262.562 235.102 264.351 224.94 267.714 215.351C277.232 188.372 286.893 161.393 297.627 134.915C307.503 110.512 318.595 86.6104 329.472 62.6371C334.41 51.7597 339.777 41.0253 347.291 31.5791C352.587 24.9238 358.455 18.9126 366.685 15.8354C368.474 15.1914 369.404 14.2611 369.476 12.8298H334.911C334.625 13.1161 334.41 13.4023 334.267 13.6886C332.12 18.0539 330.045 22.4192 328.184 26.9276C321.529 42.4566 314.874 57.914 308.29 73.443C302.565 87.0398 296.84 100.637 291.187 114.233C286.75 124.896 282.528 135.631 278.162 146.365C271.65 162.323 264.995 178.138 258.554 194.097C251.327 212.131 244.313 230.236 237.3 248.413C234.438 255.712 231.862 263.083 228.999 270.811C233.937 271.026 238.517 271.384 243.025 271.527H254.833V271.67Z" fill="#E2D7B9"/>
<path d="M258.769 12.972C259.413 14.4032 260.057 15.6198 260.916 16.6216C268.573 24.9228 270.075 35.0847 268.644 45.5327C267.642 53.0468 265.424 60.4892 262.776 67.5739C255.047 88.4701 247.104 109.295 238.803 129.905C232.648 145.147 226.065 160.104 219.266 175.06C210.464 194.525 201.447 213.919 192.144 233.169C188.852 239.967 184.702 246.336 180.623 252.634C175.757 260.219 167.956 264.513 159.941 270.166C171.964 270.166 183.056 270.095 194.076 270.238C196.653 270.238 198.012 269.379 198.871 267.018C200.302 263.153 202.02 259.361 203.666 255.568C209.391 241.971 215.33 228.446 220.841 214.777C227.782 197.531 234.438 180.141 241.093 162.752C249.394 140.997 257.695 119.17 265.853 97.3438C273.51 76.9485 281.024 56.4818 288.753 36.0865C291.974 27.6422 295.051 19.0547 302.135 12.9004H258.769V12.972Z" fill="#E2D7B9"/>
<path d="M819.53 271.598C815.236 271.598 811.444 271.598 807.221 271.598C807.221 270.095 807.221 268.735 807.221 267.376C807.221 238.035 807.078 208.695 807.293 179.426C807.436 164.183 800.566 152.447 788.973 143.573C783.606 139.423 776.664 137.49 769.58 136.56C759.203 135.129 749.972 137.633 741.313 142.857C729.004 150.228 721.49 161.249 718.413 175.132C717.339 180.141 716.767 185.437 716.695 190.589C716.552 216.066 716.624 241.613 716.624 267.161C716.624 268.592 716.624 269.952 716.624 271.669C712.688 271.669 709.038 271.669 705.174 271.669C705.174 223.437 705.174 175.275 705.174 126.828C708.823 126.828 712.473 126.828 716.552 126.828C716.552 134.628 716.552 142.285 716.552 150.944C719.844 147.652 722.349 145.004 724.925 142.428C734.586 132.982 746.25 127.257 759.489 125.253C777.38 122.534 793.052 127.4 805.218 141.14C812.302 149.155 817.025 158.673 817.956 169.407C818.886 180.285 819.387 191.162 819.53 202.039C819.745 223.723 819.602 245.406 819.602 267.161C819.53 268.306 819.53 269.737 819.53 271.598Z" fill="#E2D7B9"/>
<path d="M1033 144.72C1029.99 147.296 1027.2 149.801 1024.05 152.52C1021.19 150.516 1017.97 148.155 1014.61 146.008C1003.87 139.066 991.995 135.774 979.257 136.705C966.662 137.635 955.284 142.215 945.336 150.301C934.244 159.318 927.804 170.911 925.156 184.651C923.224 194.598 924.512 204.617 926.945 214.493C930.237 227.517 936.32 238.967 946.41 247.984C954.926 255.641 964.73 260.507 976.394 261.724C993.068 263.513 1007.09 257.716 1019.98 248.055C1021.26 247.054 1022.7 246.195 1024.05 245.193C1026.85 248.055 1029.64 250.846 1032.5 253.78C1022.05 262.94 1010.39 270.168 996.503 272.673C984.195 274.891 971.958 274.533 960.078 270.025C949.129 265.803 939.039 259.935 931.024 251.276C921.077 240.47 914.708 227.66 912.561 212.99C911.774 207.623 910.915 202.184 911.13 196.817C911.702 180.286 916.568 165.115 926.873 151.876C936.033 140.14 947.269 131.051 961.581 126.543C977.754 121.39 993.927 122.106 1009.31 129.62C1016.68 133.198 1023.55 137.85 1030.57 142.143C1031.35 142.573 1031.93 143.575 1033 144.72Z" fill="#E2D7B9"/>
<path d="M558.971 144.862C555.822 147.796 552.96 150.444 550.097 153.092C542.655 147.223 535.141 142.429 526.41 139.709C506.301 133.555 488.268 137.419 471.808 150.086C459.07 159.89 452.272 173.129 450.411 188.658C449.123 199.679 450.984 210.556 454.633 221.147C457.711 230.164 462.362 238.251 468.874 245.049C477.462 254.066 487.767 260.005 500.505 261.723C518.038 264.156 532.708 258.073 546.233 247.911C547.45 246.981 548.738 246.122 550.312 245.049C552.817 247.983 555.321 250.989 558.041 254.209C548.738 262.582 537.574 269.666 524.12 272.386C500.505 277.109 479.68 271.241 461.432 255.569C448.193 244.19 440.822 229.377 438.103 212.631C434.453 190.089 438.961 169.05 453.274 150.802C463.293 138.063 476.245 129.118 492.204 125.182C506.158 121.747 519.755 123.322 533.066 128.546C542.512 132.339 550.885 137.706 558.971 144.862Z" fill="#E2D7B9"/>
<path d="M600.836 270.81C597.114 270.81 593.536 270.81 589.744 270.81C589.744 198.603 589.744 126.612 589.744 54.334C593.393 54.334 596.971 54.334 600.836 54.334C600.836 126.326 600.836 198.389 600.836 270.81Z" fill="#E2D7B9"/>
<path d="M658.945 269.237C654.866 269.237 651.073 269.237 647.065 269.237C647.065 221.219 647.065 173.344 647.065 125.183C650.858 125.183 654.794 125.183 658.945 125.183C658.945 173.058 658.945 221.076 658.945 269.237Z" fill="#E2D7B9"/>
<path d="M862.467 125.112C866.475 125.112 870.267 125.112 874.275 125.112C874.275 173.13 874.275 221.077 874.275 269.238C870.339 269.238 866.475 269.238 862.467 269.238C862.467 221.22 862.467 173.345 862.467 125.112Z" fill="#E2D7B9"/>
</g>
</svg>
