<svg width="10" height="9" viewBox="0 0 10 9" fill="none" xmlns="http://www.w3.org/2000/svg">
<g clip-path="url(#clip0)">
<path d="M4.27553 7.00079L0.270488 2.99568C0.177782 2.90305 0.126709 2.77939 0.126709 2.64754C0.126709 2.51568 0.177782 2.39203 0.270488 2.29939L0.565364 2.00444C0.757509 1.81252 1.0698 1.81252 1.26165 2.00444L4.62484 5.36764L7.99177 2.00071C8.08447 1.90808 8.20806 1.85693 8.33984 1.85693C8.47176 1.85693 8.59535 1.90808 8.68813 2.00071L8.98293 2.29566C9.07564 2.38837 9.12671 2.51195 9.12671 2.64381C9.12671 2.77566 9.07564 2.89932 8.98293 2.99195L4.97423 7.00079C4.88123 7.09365 4.75706 7.14465 4.62506 7.14435C4.49255 7.14465 4.36846 7.09365 4.27553 7.00079Z" fill="white"/>
</g>
<defs>
<clipPath id="clip0">
<rect width="9" height="9" fill="white" transform="matrix(-4.37114e-08 1 1 4.37114e-08 0.126709 0)"/>
</clipPath>
</defs>
</svg>
