<svg width="6" height="6" viewBox="0 0 6 6" fill="none" xmlns="http://www.w3.org/2000/svg">
<g clip-path="url(#clip0)">
<path d="M4.66654 3.23412L1.99647 5.90415C1.93471 5.96595 1.85228 6 1.76437 6C1.67647 6 1.59403 5.96595 1.53228 5.90415L1.33565 5.70756C1.2077 5.57947 1.2077 5.37127 1.33565 5.24337L3.57777 3.00124L1.33316 0.756627C1.2714 0.694823 1.2373 0.612433 1.2373 0.52458C1.2373 0.43663 1.2714 0.35424 1.33316 0.292387L1.52979 0.0958519C1.59159 0.0340476 1.67398 -9.53674e-07 1.76189 -9.53674e-07C1.84979 -9.53674e-07 1.93223 0.0340476 1.99398 0.0958519L4.66654 2.76832C4.72845 2.83032 4.76245 2.9131 4.76225 3.0011C4.76245 3.08944 4.72845 3.17217 4.66654 3.23412Z" fill="white"/>
</g>
<defs>
<clipPath id="clip0">
<rect width="6" height="6" fill="white" transform="matrix(1 0 0 -1 0 6)"/>
</clipPath>
</defs>
</svg>
