<svg width="24" height="24" viewBox="0 0 24 24" fill="none" xmlns="http://www.w3.org/2000/svg">
<g clip-path="url(#clip0)">
<path d="M23.7728 22.6943L17.5764 16.5969C19.199 14.834 20.196 12.5024 20.196 9.93682C20.1952 4.44852 15.6747 0 10.0979 0C4.52104 0 0.000488281 4.44852 0.000488281 9.93682C0.000488281 15.4251 4.52104 19.8736 10.0979 19.8736C12.5074 19.8736 14.7174 19.0402 16.4534 17.6546L22.6738 23.776C22.9769 24.0746 23.469 24.0746 23.7721 23.776C24.0759 23.4775 24.0759 22.9929 23.7728 22.6943ZM10.0979 18.3448C5.37926 18.3448 1.55411 14.5804 1.55411 9.93682C1.55411 5.29321 5.37926 1.52884 10.0979 1.52884C14.8165 1.52884 18.6416 5.29321 18.6416 9.93682C18.6416 14.5804 14.8165 18.3448 10.0979 18.3448Z" fill="#3A4047"/>
</g>
<defs>
<clipPath id="clip0">
<rect width="24" height="24" fill="white"/>
</clipPath>
</defs>
</svg>
