<svg width="29" height="29" viewBox="0 0 29 29" fill="none" xmlns="http://www.w3.org/2000/svg">
<path d="M28.7253 27.4223L21.238 20.0546C23.1987 17.9244 24.4034 15.1071 24.4034 12.007C24.4025 5.37529 18.9401 0 12.2015 0C5.46282 0 0.000488281 5.37529 0.000488281 12.007C0.000488281 18.6387 5.46282 24.014 12.2015 24.014C15.113 24.014 17.7835 23.0069 19.881 21.3327L27.3974 28.7294C27.7637 29.0902 28.3582 29.0902 28.7245 28.7294C29.0916 28.3686 29.0916 27.7831 28.7253 27.4223ZM12.2015 22.1666C6.49984 22.1666 1.87778 17.618 1.87778 12.007C1.87778 6.39596 6.49984 1.84735 12.2015 1.84735C17.9032 1.84735 22.5252 6.39596 22.5252 12.007C22.5252 17.618 17.9032 22.1666 12.2015 22.1666Z" fill="white"/>
</svg>
