<svg width="48" height="48" viewBox="0 0 48 48" fill="none" xmlns="http://www.w3.org/2000/svg">
<circle cx="24" cy="24" r="23.5" fill="white" fill-opacity="0.5" stroke="#3A4047"/>
<g clip-path="url(#clip0)">
<path d="M25.9472 12.8791C25.6688 12.7463 25.3408 12.7815 25.1008 12.9751L17.3184 19.2007H13.6C12.7184 19.2007 12 19.9191 12 20.8007V27.2007C12 28.0839 12.7184 28.8007 13.6 28.8007H17.3184L25.0992 35.0263C25.2448 35.1415 25.4224 35.2007 25.6 35.2007C25.7184 35.2007 25.8368 35.1735 25.9472 35.1207C26.224 34.9879 26.4 34.7079 26.4 34.4007V13.6007C26.4 13.2935 26.224 13.0135 25.9472 12.8791Z" fill="#3A4047"/>
<path d="M30.4497 18.343C30.1345 18.0326 29.6289 18.0374 29.3185 18.3494C29.0081 18.6646 29.0113 19.1702 29.3249 19.4822C30.5345 20.6758 31.2001 22.2806 31.2001 24.0006C31.2001 25.7206 30.5345 27.3254 29.3249 28.519C29.0113 28.8278 29.0081 29.335 29.3185 29.6502C29.4753 29.8086 29.6817 29.887 29.8865 29.887C30.0897 29.887 30.2929 29.8102 30.4497 29.655C31.9665 28.1622 32.8001 26.1526 32.8001 24.0006C32.8001 21.8486 31.9665 19.839 30.4497 18.343Z" fill="#3A4047"/>
<path d="M32.7073 16.0882C32.3921 15.7762 31.8865 15.7794 31.5745 16.093C31.2641 16.4066 31.2673 16.9138 31.5793 17.2242C33.3985 19.0274 34.4001 21.4338 34.4001 24.0002C34.4001 26.5666 33.3985 28.9714 31.5793 30.7746C31.2673 31.0866 31.2641 31.5938 31.5745 31.9074C31.7329 32.0642 31.9377 32.1426 32.1425 32.1426C32.3457 32.1426 32.5505 32.0658 32.7073 31.9106C34.8321 29.8066 36.0001 26.997 36.0001 24.0002C36.0001 21.0034 34.8321 18.1938 32.7073 16.0882Z" fill="#3A4047"/>
</g>
<defs>
<clipPath id="clip0">
<rect width="24" height="24" fill="white" transform="translate(12 12)"/>
</clipPath>
</defs>
</svg>
