<svg width="48" height="48" viewBox="0 0 48 48" fill="none" xmlns="http://www.w3.org/2000/svg">
<circle cx="24" cy="24" r="23.5" fill="white" fill-opacity="0.5" stroke="#3A4047"/>
<g clip-path="url(#clip0)">
<path d="M30.8551 12.861C30.8551 12.5353 30.6666 12.2268 30.3752 12.0897C30.0667 11.9354 29.7239 11.9869 29.4668 12.1925L21.8738 18.2429L30.8551 27.2243V12.861Z" fill="#3A4047"/>
<path d="M35.7469 34.5361L13.4649 12.2541C13.1307 11.9199 12.5873 11.9199 12.2531 12.2541C11.9189 12.5883 11.9189 13.1317 12.2531 13.4659L17.6454 18.8598H17.1432C16.6118 18.8598 16.149 19.0998 15.8405 19.4769C15.5834 19.7683 15.4292 20.1625 15.4292 20.5738V27.4298C15.4292 28.3725 16.2005 29.1438 17.1432 29.1438H21.1196L29.4668 35.8113C29.6211 35.9313 29.8096 35.9998 29.9981 35.9998C30.1181 35.9998 30.2552 35.9656 30.3752 35.9141C30.6666 35.777 30.8551 35.4685 30.8551 35.1428V32.0696L34.5334 35.7479C34.7014 35.9158 34.9207 35.9998 35.1401 35.9998C35.3595 35.9998 35.5789 35.9158 35.7469 35.7496C36.0811 35.4136 36.0811 34.872 35.7469 34.5361Z" fill="#3A4047"/>
</g>
<defs>
<clipPath id="clip0">
<rect width="24" height="24" fill="white" transform="translate(12 12)"/>
</clipPath>
</defs>
</svg>
